<?xml version="1.0" encoding="utf-8"?>
<!-- Generator: Adobe Illustrator 19.0.0, SVG Export Plug-In . SVG Version: 6.00 Build 0)  -->
<svg version="1.1" xmlns="http://www.w3.org/2000/svg" xmlns:xlink="http://www.w3.org/1999/xlink" x="0px" y="0px"
	 viewBox="0 0 299.4 140.7" style="enable-background:new 0 0 299.4 140.7;" xml:space="preserve">
<style type="text/css">
	.st0{fill:#AF875F;}
	.st1{fill:#A36F45;}
	.st2{fill:#D7AF87;}
	.st3{fill:#BC8E6C;}
	.st4{fill:#D65F5F;}
	.st5{fill:#BC4D4D;}
	.st6{fill:#FF8787;}
	.st7{fill:#F46D6D;}
	.st8{fill:#A8A8A8;}
	.st9{fill:#999999;}
	.st10{fill:#AFD7FF;}
	.st11{fill:#8DC0F2;}
	.st12{fill:#AFAFFF;}
	.st13{fill:#8D8DF2;}
	.st14{fill:#FFAFD7;}
	.st15{fill:#F28DC0;}
	.st16{fill:#FFD7D7;}
	.st17{fill:#F4B5B5;}
	.st18{fill:#5F87AE;}
	.st19{fill:#4A76A1;}
	.st20{fill:#87D7AF;}
	.st21{fill:#6BCA9A;}
	.st22{fill:#D7FFAF;}
	.st23{fill:#B7E87E;}
	.st24{fill:#FFD687;}
	.st25{fill:#F4C66D;}
	.st26{fill:#FFFDA9;}
	.st27{fill:#EDE188;}
	.st28{fill:#008787;}
	.st29{fill:#007A7A;}
	.st30{fill:#FFFFFF;}
	.st31{font-family:'OpenSans-Bold';}
	.st32{font-size:4.5728px;}
</style>
<g id="_x33_">
	<g id="XMLID_222_">
		<rect id="XMLID_192_" x="167.1" y="99" class="st0" width="34.8" height="34.8"/>
		<rect id="XMLID_87_" x="167.1" y="125.5" class="st1" width="34.8" height="8.2"/>
	</g>
	<g id="XMLID_221_">
		<rect id="XMLID_109_" x="132.3" y="99" class="st2" width="34.8" height="34.8"/>
		<rect id="XMLID_144_" x="132.3" y="125.5" class="st3" width="34.8" height="8.2"/>
	</g>
	<g id="XMLID_220_">
		<rect id="XMLID_115_" x="97.6" y="99" class="st4" width="34.8" height="34.8"/>
		<rect id="XMLID_88_" x="97.6" y="125.5" class="st5" width="34.8" height="8.2"/>
	</g>
	<g id="XMLID_219_">
		<path id="XMLID_53_" class="st6" d="M92.6,99C92.6,99,92.6,99,92.6,99l-24.7,0c-2.8,0-5,2.3-5,5v24.7c0,2.8,2.3,5,5,5h24.7
			c2.8,0,5-2.3,5-5v-3.2v-21.5v-5H92.6z"/>
		<path id="XMLID_42_" class="st7" d="M97.6,125.5H80.2H62.8v3.2c0,2.8,2.3,5.1,5.1,5.1h12.3v0h17.4L97.6,125.5L97.6,125.5z"/>
	</g>
	<g id="XMLID_223_">
		<path id="XMLID_123_" class="st8" d="M231.6,99h-24.7c0,0,0,0,0,0h-5v5v24.7v5h13.6v0h16.1c2.8,0,5-2.3,5-5v-24.7
			C236.6,101.3,234.3,99,231.6,99z"/>
		<path id="XMLID_225_" class="st9" d="M217.5,125.5h-15.7h0v3.2c0,0,0,0,0,0v5.1h15.7v0h14c2.8,0,5.1-2.3,5.1-5.1v-3.2H217.5z"/>
	</g>
</g>
<g id="_x32_">
	<g id="XMLID_317_">
		<rect id="XMLID_319_" x="167.1" y="53" class="st10" width="34.8" height="34.8"/>
		<rect id="XMLID_318_" x="167.1" y="79.5" class="st11" width="34.8" height="8.2"/>
	</g>
	<g id="XMLID_314_">
		<rect id="XMLID_316_" x="132.3" y="53" class="st12" width="34.8" height="34.8"/>
		<rect id="XMLID_315_" x="132.3" y="79.5" class="st13" width="34.8" height="8.2"/>
	</g>
	<g id="XMLID_311_">
		<rect id="XMLID_313_" x="97.6" y="53" class="st14" width="34.8" height="34.8"/>
		<rect id="XMLID_312_" x="97.6" y="79.5" class="st15" width="34.8" height="8.2"/>
	</g>
	<g id="XMLID_308_">
		<path id="XMLID_310_" class="st16" d="M71.3,53L71.3,53l-3.4,0c-2.8,0-5,2.3-5,5v24.7c0,2.8,2.3,5,5,5h24.7c2.8,0,5-2.3,5-5v-3.2
			V58v-5H71.3z"/>
		<path id="XMLID_309_" class="st17" d="M97.6,79.5H80.2v0H62.8v3.2c0,2.8,2.3,5.1,5.1,5.1h24.6c0,0,0,0,0,0h5.1V79.5z"/>
	</g>
	<g id="XMLID_305_">
		<path id="XMLID_307_" class="st18" d="M231.6,53h-16.1h-8.6h-5v5c0,0,0,0,0,0v24.7c0,0,0,0,0,0v5h5h8.6h16.1c2.8,0,5-2.3,5-5V58
			C236.6,55.2,234.3,53,231.6,53z"/>
		<path id="XMLID_306_" class="st19" d="M217.5,79.5L217.5,79.5l-15.7,0v0h0v3.2c0,0,0,0,0,0v5.1h5.1c0,0,0,0,0,0h24.6
			c2.8,0,5.1-2.3,5.1-5.1v-3.2H217.5z"/>
	</g>
</g>
<g id="_x31__1_">
	<g id="XMLID_36_">
		<rect id="XMLID_180_" x="167.1" y="6.9" class="st20" width="34.8" height="34.8"/>
		<rect id="XMLID_179_" x="167.1" y="33.4" class="st21" width="34.8" height="8.2"/>
	</g>
	<g id="XMLID_17_">
		<rect id="XMLID_174_" x="132.3" y="6.9" class="st22" width="34.8" height="34.8"/>
		<rect id="XMLID_167_" x="132.3" y="33.4" class="st23" width="34.8" height="8.2"/>
	</g>
	<g id="XMLID_8_">
		<rect id="XMLID_166_" x="97.6" y="6.9" class="st24" width="34.8" height="34.8"/>
		<rect id="XMLID_164_" x="97.6" y="33.4" class="st25" width="34.8" height="8.2"/>
	</g>
	<g id="XMLID_2_">
		<path id="XMLID_37_" class="st26" d="M71.3,6.9L71.3,6.9l-3.4,0c-2.8,0-5,2.3-5,5v24.7c0,2.8,2.3,5,5,5h24.7c2.8,0,5-2.3,5-5v-3.2
			V11.9v-5H71.3z"/>
		<path id="XMLID_39_" class="st27" d="M97.6,33.4H80.2v0H62.8v3.2c0,2.8,2.3,5.1,5.1,5.1h24.6c0,0,0,0,0,0h5.1V33.4z"/>
	</g>
	<g id="XMLID_1_">
		<path id="XMLID_55_" class="st28" d="M231.6,6.9h-16.1h-8.6h-5v5c0,0,0,0,0,0v24.7c0,0,0,0,0,0v5h5h8.6h16.1c2.8,0,5-2.3,5-5V11.9
			C236.6,9.2,234.3,6.9,231.6,6.9z"/>
		<path id="XMLID_12_" class="st29" d="M217.5,33.4L217.5,33.4l-15.7,0v0h0v3.2c0,0,0,0,0,0v5.1h5.1c0,0,0,0,0,0h24.6
			c2.8,0,5.1-2.3,5.1-5.1v-3.2H217.5z"/>
	</g>
</g>
<g id="Text">
	<text id="XMLID_274_" transform="matrix(1 0 0 1 205.5059 131.1297)" class="st30 st31 st32">248</text>
	<text id="XMLID_273_" transform="matrix(1 0 0 1 170.752 131.1297)" class="st30 st31 st32">137</text>
	<text id="XMLID_272_" transform="matrix(1 0 0 1 135.9991 131.1297)" class="st30 st31 st32">180</text>
	<text id="XMLID_271_" transform="matrix(1 0 0 1 101.2462 131.1297)" class="st30 st31 st32">167</text>
	<text id="XMLID_270_" transform="matrix(1 0 0 1 66.4932 131.1297)" class="st30 st31 st32">210</text>
	<text id="XMLID_269_" transform="matrix(1 0 0 1 205.5059 85.0626)" class="st30 st31 st32">67</text>
	<text id="XMLID_268_" transform="matrix(1 0 0 1 170.752 85.0626)" class="st30 st31 st32">153</text>
	<text id="XMLID_267_" transform="matrix(1 0 0 1 135.9991 85.0626)" class="st30 st31 st32">147</text>
	<text id="XMLID_266_" transform="matrix(1 0 0 1 101.2462 85.0626)" class="st30 st31 st32">218</text>
	<text id="XMLID_265_" transform="matrix(1 0 0 1 66.4932 85.0617)" class="st30 st31 st32">248</text>
	<text id="XMLID_264_" transform="matrix(1 0 0 1 206.1134 38.9936)" class="st30 st31 st32">30</text>
	<text id="XMLID_248_" transform="matrix(1 0 0 1 170.752 38.9936)" class="st30 st31 st32">115</text>
	<text id="XMLID_218_" transform="matrix(1 0 0 1 135.9991 38.9936)" class="st30 st31 st32">193</text>
	<text id="XMLID_217_" transform="matrix(1 0 0 1 101.2462 38.9936)" class="st30 st31 st32">222</text>
	<text id="XMLID_216_" transform="matrix(1 0 0 1 66.4932 38.9936)" class="st30 st31 st32">229</text>
</g>
</svg>
