<?xml version="1.0" encoding="utf-8"?>
<!-- Generator: Adobe Illustrator 19.0.0, SVG Export Plug-In . SVG Version: 6.00 Build 0)  -->
<svg version="1.1" xmlns="http://www.w3.org/2000/svg" xmlns:xlink="http://www.w3.org/1999/xlink" x="0px" y="0px"
	 viewBox="-249 180.3 299.4 140.7" style="enable-background:new -249 180.3 299.4 140.7;" xml:space="preserve">
<style type="text/css">
	.st0{fill:#A8A8A8;}
	.st1{fill:#999999;}
	.st2{fill:#AF875F;}
	.st3{fill:#A36F45;}
	.st4{fill:#D7AF87;}
	.st5{fill:#BC8E6C;}
	.st6{fill:#D65F5F;}
	.st7{fill:#BC4D4D;}
	.st8{fill:#FF8787;}
	.st9{fill:#F46D6D;}
	.st10{enable-background:new    ;}
	.st11{fill:#FFFFFF;}
	.st12{fill:#5F87AE;}
	.st13{fill:#4A76A1;}
	.st14{fill:#AFD7FF;}
	.st15{fill:#8DC0F2;}
	.st16{fill:#AFAFFF;}
	.st17{fill:#8D8DF2;}
	.st18{fill:#FFD7D7;}
	.st19{fill:#F4B5B5;}
	.st20{fill:#FFAFD7;}
	.st21{fill:#F28DC0;}
	.st22{fill:#008787;}
	.st23{fill:#007A7A;}
	.st24{fill:#87D7AF;}
	.st25{fill:#6BCA9A;}
	.st26{fill:#D7FFAF;}
	.st27{fill:#B7E87E;}
	.st28{fill:#FFFDA9;}
	.st29{fill:#EDE188;}
	.st30{fill:#FFD687;}
	.st31{fill:#F4C66D;}
	.st32{display:none;}
	.st33{display:inline;fill:#FFFFFF;}
	.st34{font-family:'Helvetica-Bold';}
	.st35{font-size:4.0159px;}
</style>
<g id="Layer_1">
	<g id="_x33_">
		<g id="XMLID_223_">
			<path id="XMLID_123_" class="st0" d="M18.3,275.8H-3.4l0,0h-4.4v4.4v21.7v4.4H4.2l0,0h14.1c2.5,0,4.4-2,4.4-4.4v-21.7
				C22.7,277.8,20.7,275.8,18.3,275.8z"/>
			<path id="XMLID_225_" class="st1" d="M5.9,299.1H-7.9l0,0v2.8l0,0v4.5H5.9l0,0h12.3c2.5,0,4.5-2,4.5-4.5v-2.8H5.9z"/>
		</g>
		<g id="XMLID_222_">
			<rect id="XMLID_192_" x="-38.3" y="275.8" class="st2" width="30.6" height="30.6"/>
			<rect id="XMLID_87_" x="-38.3" y="299.1" class="st3" width="30.6" height="7.3"/>
		</g>
		<g id="XMLID_221_">
			<rect id="XMLID_109_" x="-68.9" y="275.8" class="st4" width="30.6" height="30.6"/>
			<rect id="XMLID_144_" x="-68.9" y="299.1" class="st5" width="30.6" height="7.3"/>
		</g>
		<g id="XMLID_220_">
			<rect id="XMLID_115_" x="-99.4" y="275.8" class="st6" width="30.6" height="30.6"/>
			<rect id="XMLID_88_" x="-99.4" y="299.1" class="st7" width="30.6" height="7.3"/>
		</g>
		<g id="XMLID_219_">
			<path id="XMLID_53_" class="st8" d="M-103.8,275.8L-103.8,275.8h-21.7c-2.5,0-4.4,2-4.4,4.4v21.7c0,2.5,2,4.4,4.4,4.4h21.7
				c2.5,0,4.4-2,4.4-4.4v-2.8v-18.9v-4.4H-103.8z"/>
			<path id="XMLID_42_" class="st9" d="M-99.3,299.1h-15.3h-15.3v2.8c0,2.5,2,4.5,4.5,4.5h10.8l0,0h15.3V299.1L-99.3,299.1z"/>
		</g>
	</g>
	<g id="Text_3">
		<g class="st10">
			<path class="st11" d="M-48.1,304h-2v-0.4l0.7-0.7c0.2-0.2,0.4-0.4,0.4-0.5c0.1-0.1,0.1-0.2,0.1-0.2c0-0.1,0-0.1,0-0.2
				c0-0.1,0-0.2-0.1-0.3c-0.1-0.1-0.1-0.1-0.3-0.1c-0.1,0-0.2,0-0.3,0.1c-0.1,0.1-0.2,0.1-0.3,0.2l-0.3-0.4c0.1-0.1,0.3-0.2,0.4-0.3
				s0.2-0.1,0.3-0.1c0.1,0,0.2,0,0.4,0c0.2,0,0.3,0,0.5,0.1c0.1,0.1,0.2,0.2,0.3,0.3c0.1,0.1,0.1,0.3,0.1,0.4c0,0.1,0,0.3-0.1,0.4
				c0,0.1-0.1,0.2-0.2,0.4c-0.1,0.1-0.3,0.3-0.5,0.5l-0.4,0.3v0h1.2V304z"/>
			<path class="st11" d="M-45.8,303.4h-0.3v0.6h-0.6v-0.6h-1.2V303l1.3-1.9h0.6v1.8h0.3V303.4z M-46.7,303v-0.5c0-0.1,0-0.2,0-0.4
				c0-0.2,0-0.2,0-0.3h0c0,0.1-0.1,0.2-0.2,0.3l-0.5,0.8H-46.7z"/>
			<path class="st11" d="M-44.6,301.1c0.3,0,0.5,0.1,0.7,0.2s0.3,0.3,0.3,0.5c0,0.1,0,0.3-0.1,0.4s-0.2,0.2-0.4,0.3
				c0.2,0.1,0.4,0.2,0.5,0.4c0.1,0.1,0.1,0.3,0.1,0.4c0,0.2-0.1,0.4-0.3,0.6c-0.2,0.1-0.4,0.2-0.7,0.2c-0.3,0-0.6-0.1-0.7-0.2
				c-0.2-0.1-0.3-0.3-0.3-0.6c0-0.2,0-0.3,0.1-0.4s0.2-0.2,0.4-0.3c-0.2-0.1-0.3-0.2-0.4-0.3c-0.1-0.1-0.1-0.2-0.1-0.4
				c0-0.2,0.1-0.4,0.3-0.5S-44.8,301.1-44.6,301.1z M-45,303.3c0,0.1,0,0.2,0.1,0.3c0.1,0.1,0.2,0.1,0.3,0.1c0.2,0,0.3,0,0.3-0.1
				s0.1-0.2,0.1-0.3c0-0.1,0-0.2-0.1-0.2s-0.2-0.2-0.4-0.2C-44.9,302.9-45,303.1-45,303.3z M-44.6,301.6c-0.1,0-0.2,0-0.2,0.1
				c-0.1,0.1-0.1,0.1-0.1,0.2c0,0.1,0,0.1,0.1,0.2c0,0.1,0.1,0.1,0.3,0.2c0.1-0.1,0.2-0.1,0.3-0.2s0.1-0.1,0.1-0.2
				c0-0.1,0-0.2-0.1-0.2C-44.4,301.6-44.5,301.6-44.6,301.6z"/>
		</g>
		<g class="st10">
			<path class="st11" d="M-79.2,304h-0.6v-1.7l0-0.3l0-0.3c-0.1,0.1-0.2,0.2-0.2,0.2l-0.3,0.3l-0.3-0.4l0.9-0.7h0.5V304z"/>
			<path class="st11" d="M-76.5,301.8c0,0.2-0.1,0.3-0.2,0.5c-0.1,0.1-0.3,0.2-0.5,0.3v0c0.2,0,0.4,0.1,0.5,0.2
				c0.1,0.1,0.2,0.3,0.2,0.5c0,0.3-0.1,0.5-0.3,0.6c-0.2,0.2-0.5,0.2-0.9,0.2c-0.3,0-0.6-0.1-0.8-0.2v-0.5c0.1,0.1,0.2,0.1,0.4,0.1
				c0.1,0,0.3,0.1,0.4,0.1c0.2,0,0.3,0,0.4-0.1c0.1-0.1,0.1-0.2,0.1-0.3c0-0.1-0.1-0.2-0.2-0.3c-0.1-0.1-0.3-0.1-0.5-0.1h-0.2v-0.5
				h0.2c0.2,0,0.4,0,0.5-0.1c0.1-0.1,0.2-0.2,0.2-0.3c0-0.2-0.1-0.3-0.4-0.3c-0.1,0-0.2,0-0.3,0c-0.1,0-0.2,0.1-0.3,0.2l-0.3-0.4
				c0.3-0.2,0.6-0.3,0.9-0.3c0.3,0,0.5,0.1,0.7,0.2S-76.5,301.6-76.5,301.8z"/>
			<path class="st11" d="M-75.8,304l1.1-2.4h-1.4v-0.5h2.1v0.4l-1.1,2.5H-75.8z"/>
		</g>
		<g class="st10">
			<path class="st11" d="M-109.7,304h-0.6v-1.7l0-0.3l0-0.3c-0.1,0.1-0.2,0.2-0.2,0.2l-0.3,0.3l-0.3-0.4l0.9-0.7h0.5V304z"/>
			<path class="st11" d="M-107.9,301.1c0.3,0,0.5,0.1,0.7,0.2s0.3,0.3,0.3,0.5c0,0.1,0,0.3-0.1,0.4s-0.2,0.2-0.4,0.3
				c0.2,0.1,0.4,0.2,0.5,0.4c0.1,0.1,0.1,0.3,0.1,0.4c0,0.2-0.1,0.4-0.3,0.6c-0.2,0.1-0.4,0.2-0.7,0.2c-0.3,0-0.6-0.1-0.7-0.2
				c-0.2-0.1-0.3-0.3-0.3-0.6c0-0.2,0-0.3,0.1-0.4s0.2-0.2,0.4-0.3c-0.2-0.1-0.3-0.2-0.4-0.3c-0.1-0.1-0.1-0.2-0.1-0.4
				c0-0.2,0.1-0.4,0.3-0.5S-108.2,301.1-107.9,301.1z M-108.3,303.3c0,0.1,0,0.2,0.1,0.3c0.1,0.1,0.2,0.1,0.3,0.1
				c0.2,0,0.3,0,0.3-0.1s0.1-0.2,0.1-0.3c0-0.1,0-0.2-0.1-0.2s-0.2-0.2-0.4-0.2C-108.2,302.9-108.3,303.1-108.3,303.3z
				 M-107.9,301.6c-0.1,0-0.2,0-0.2,0.1c-0.1,0.1-0.1,0.1-0.1,0.2c0,0.1,0,0.1,0.1,0.2c0.1,0.1,0.1,0.1,0.3,0.2
				c0.1-0.1,0.2-0.1,0.3-0.2c0.1-0.1,0.1-0.1,0.1-0.2c0-0.1,0-0.2-0.1-0.2C-107.7,301.6-107.8,301.6-107.9,301.6z"/>
			<path class="st11" d="M-104.6,302.6c0,0.5-0.1,0.9-0.2,1.1c-0.2,0.2-0.4,0.4-0.8,0.4c-0.3,0-0.6-0.1-0.7-0.4
				c-0.2-0.2-0.3-0.6-0.3-1.1c0-0.5,0.1-0.9,0.2-1.1c0.2-0.2,0.4-0.4,0.8-0.4c0.3,0,0.6,0.1,0.8,0.4
				C-104.7,301.7-104.6,302.1-104.6,302.6z M-106,302.6c0,0.4,0,0.6,0.1,0.8c0.1,0.2,0.2,0.2,0.3,0.2c0.1,0,0.2-0.1,0.3-0.2
				c0.1-0.2,0.1-0.4,0.1-0.8c0-0.4,0-0.6-0.1-0.8s-0.2-0.2-0.3-0.2c-0.1,0-0.2,0.1-0.3,0.2S-106,302.2-106,302.6z"/>
		</g>
		<g class="st10">
			<path class="st11" d="M-140.2,304h-0.6v-1.7l0-0.3l0-0.3c-0.1,0.1-0.2,0.2-0.2,0.2l-0.3,0.3l-0.3-0.4l0.9-0.7h0.5V304z"/>
			<path class="st11" d="M-139.4,302.8c0-0.6,0.1-1,0.4-1.3s0.6-0.4,1.1-0.4c0.2,0,0.3,0,0.4,0v0.5c-0.1,0-0.2,0-0.3,0
				c-0.2,0-0.4,0-0.5,0.1c-0.1,0.1-0.2,0.2-0.3,0.3c-0.1,0.1-0.1,0.3-0.1,0.5h0c0.1-0.2,0.3-0.3,0.6-0.3c0.3,0,0.5,0.1,0.6,0.2
				c0.1,0.2,0.2,0.4,0.2,0.7c0,0.3-0.1,0.5-0.3,0.7c-0.2,0.2-0.4,0.3-0.7,0.3c-0.2,0-0.4,0-0.6-0.1c-0.2-0.1-0.3-0.2-0.4-0.4
				C-139.4,303.3-139.4,303.1-139.4,302.8z M-138.4,303.6c0.1,0,0.2,0,0.3-0.1s0.1-0.2,0.1-0.4c0-0.1,0-0.2-0.1-0.3
				c-0.1-0.1-0.2-0.1-0.3-0.1c-0.1,0-0.2,0-0.3,0.1c-0.1,0.1-0.1,0.2-0.1,0.3c0,0.2,0,0.3,0.1,0.4
				C-138.6,303.5-138.5,303.6-138.4,303.6z"/>
			<path class="st11" d="M-136.8,304l1.1-2.4h-1.4v-0.5h2.1v0.4l-1.1,2.5H-136.8z"/>
		</g>
		<g class="st10">
			<path class="st11" d="M-170.2,304h-2v-0.4l0.7-0.7c0.2-0.2,0.4-0.4,0.4-0.5c0.1-0.1,0.1-0.2,0.1-0.2c0-0.1,0-0.1,0-0.2
				c0-0.1,0-0.2-0.1-0.3c-0.1-0.1-0.1-0.1-0.3-0.1c-0.1,0-0.2,0-0.3,0.1c-0.1,0.1-0.2,0.1-0.3,0.2l-0.3-0.4c0.1-0.1,0.3-0.2,0.4-0.3
				s0.2-0.1,0.3-0.1c0.1,0,0.2,0,0.4,0c0.2,0,0.3,0,0.5,0.1s0.2,0.2,0.3,0.3c0.1,0.1,0.1,0.3,0.1,0.4c0,0.1,0,0.3-0.1,0.4
				c0,0.1-0.1,0.2-0.2,0.4c-0.1,0.1-0.3,0.3-0.5,0.5l-0.4,0.3v0h1.2V304z"/>
			<path class="st11" d="M-168.4,304h-0.6v-1.7l0-0.3l0-0.3c-0.1,0.1-0.2,0.2-0.2,0.2l-0.3,0.3l-0.3-0.4l0.9-0.7h0.5V304z"/>
			<path class="st11" d="M-165.6,302.6c0,0.5-0.1,0.9-0.2,1.1c-0.2,0.2-0.4,0.4-0.8,0.4c-0.3,0-0.6-0.1-0.7-0.4
				c-0.2-0.2-0.3-0.6-0.3-1.1c0-0.5,0.1-0.9,0.2-1.1c0.2-0.2,0.4-0.4,0.8-0.4c0.3,0,0.6,0.1,0.8,0.4
				C-165.7,301.7-165.6,302.1-165.6,302.6z M-167,302.6c0,0.4,0,0.6,0.1,0.8c0.1,0.2,0.2,0.2,0.3,0.2c0.1,0,0.2-0.1,0.3-0.2
				c0.1-0.2,0.1-0.4,0.1-0.8c0-0.4,0-0.6-0.1-0.8s-0.2-0.2-0.3-0.2c-0.1,0-0.2,0.1-0.3,0.2S-167,302.2-167,302.6z"/>
		</g>
	</g>
	<g id="_x32_">
		<g id="XMLID_305_">
			<path id="XMLID_307_" class="st12" d="M-27.4,235.4h-14.1h-7.6h-4.4v4.4l0,0v21.7l0,0v4.4h4.4h7.6h14.1c2.5,0,4.4-2,4.4-4.4
				v-21.7C-23,237.3-25,235.4-27.4,235.4z"/>
			<path id="XMLID_306_" class="st13" d="M-39.8,258.7L-39.8,258.7h-13.8l0,0l0,0v2.8l0,0v4.5h4.5l0,0h21.6c2.5,0,4.5-2,4.5-4.5
				v-2.8H-39.8z"/>
		</g>
		<g id="XMLID_317_">
			<rect id="XMLID_319_" x="-84" y="235.4" class="st14" width="30.6" height="30.6"/>
			<rect id="XMLID_318_" x="-84" y="258.7" class="st15" width="30.6" height="7.3"/>
		</g>
		<g id="XMLID_314_">
			<rect id="XMLID_316_" x="-114.6" y="235.4" class="st16" width="30.6" height="30.6"/>
			<rect id="XMLID_315_" x="-114.6" y="258.7" class="st17" width="30.6" height="7.3"/>
		</g>
		<g id="XMLID_308_">
			<path id="XMLID_310_" class="st18" d="M-168.2,235.4L-168.2,235.4h-3c-2.5,0-4.4,2-4.4,4.4v21.7c0,2.5,2,4.4,4.4,4.4h21.7
				c2.5,0,4.4-2,4.4-4.4v-2.8v-18.9v-4.4H-168.2z"/>
			<path id="XMLID_309_" class="st19" d="M-145,258.7h-15.3l0,0h-15.3v2.8c0,2.5,2,4.5,4.5,4.5h21.6l0,0h4.5V258.7z"/>
		</g>
		<g id="XMLID_311_">
			<rect id="XMLID_313_" x="-145.1" y="235.4" class="st20" width="30.6" height="30.6"/>
			<rect id="XMLID_312_" x="-145.1" y="258.7" class="st21" width="30.6" height="7.3"/>
		</g>
	</g>
	<g id="Text_2">
		<g class="st10">
			<path class="st11" d="M-50.1,262.4c0-0.6,0.1-1,0.4-1.3s0.6-0.4,1.1-0.4c0.2,0,0.3,0,0.4,0v0.5c-0.1,0-0.2,0-0.3,0
				c-0.2,0-0.4,0-0.5,0.1c-0.1,0.1-0.2,0.2-0.3,0.3s-0.1,0.3-0.1,0.5h0c0.1-0.2,0.3-0.3,0.6-0.3c0.3,0,0.5,0.1,0.6,0.2
				c0.1,0.2,0.2,0.4,0.2,0.7c0,0.3-0.1,0.5-0.3,0.7c-0.2,0.2-0.4,0.3-0.7,0.3c-0.2,0-0.4,0-0.6-0.1c-0.2-0.1-0.3-0.2-0.4-0.4
				S-50.1,262.6-50.1,262.4z M-49.1,263.1c0.1,0,0.2,0,0.3-0.1s0.1-0.2,0.1-0.4c0-0.1,0-0.2-0.1-0.3c-0.1-0.1-0.2-0.1-0.3-0.1
				c-0.1,0-0.2,0-0.3,0.1c-0.1,0.1-0.1,0.2-0.1,0.3c0,0.2,0,0.3,0.1,0.4C-49.3,263.1-49.2,263.1-49.1,263.1z"/>
			<path class="st11" d="M-47.6,263.6l1.1-2.4h-1.4v-0.5h2.1v0.4l-1.1,2.5H-47.6z"/>
		</g>
		<g class="st10">
			<path class="st11" d="M-79.2,263.6h-0.6v-1.7l0-0.3l0-0.3c-0.1,0.1-0.2,0.2-0.2,0.2l-0.3,0.3l-0.3-0.4l0.9-0.7h0.5V263.6z"/>
			<path class="st11" d="M-77.3,261.7c0.3,0,0.5,0.1,0.7,0.2c0.2,0.2,0.2,0.4,0.2,0.6c0,0.3-0.1,0.6-0.3,0.7s-0.5,0.3-0.8,0.3
				c-0.3,0-0.6-0.1-0.8-0.2v-0.5c0.1,0.1,0.2,0.1,0.4,0.1c0.1,0,0.3,0.1,0.4,0.1c0.4,0,0.6-0.2,0.6-0.5c0-0.3-0.2-0.4-0.6-0.4
				c-0.1,0-0.1,0-0.2,0c-0.1,0-0.2,0-0.2,0l-0.2-0.1l0.1-1.5h1.6v0.5h-1l-0.1,0.6l0.1,0C-77.5,261.7-77.4,261.7-77.3,261.7z"/>
			<path class="st11" d="M-74.2,261.3c0,0.2-0.1,0.3-0.2,0.5c-0.1,0.1-0.3,0.2-0.5,0.3v0c0.2,0,0.4,0.1,0.5,0.2
				c0.1,0.1,0.2,0.3,0.2,0.5c0,0.3-0.1,0.5-0.3,0.6c-0.2,0.2-0.5,0.2-0.9,0.2c-0.3,0-0.6-0.1-0.8-0.2v-0.5c0.1,0.1,0.2,0.1,0.4,0.1
				c0.1,0,0.3,0.1,0.4,0.1c0.2,0,0.3,0,0.4-0.1c0.1-0.1,0.1-0.2,0.1-0.3c0-0.1-0.1-0.2-0.2-0.3c-0.1-0.1-0.3-0.1-0.5-0.1h-0.2v-0.5
				h0.2c0.2,0,0.4,0,0.5-0.1c0.1-0.1,0.2-0.2,0.2-0.3c0-0.2-0.1-0.3-0.4-0.3c-0.1,0-0.2,0-0.3,0c-0.1,0-0.2,0.1-0.3,0.2l-0.3-0.4
				c0.3-0.2,0.6-0.3,0.9-0.3c0.3,0,0.5,0.1,0.7,0.2S-74.2,261.1-74.2,261.3z"/>
		</g>
		<g class="st10">
			<path class="st11" d="M-109.7,263.6h-0.6v-1.7l0-0.3l0-0.3c-0.1,0.1-0.2,0.2-0.2,0.2l-0.3,0.3l-0.3-0.4l0.9-0.7h0.5V263.6z"/>
			<path class="st11" d="M-106.8,263h-0.3v0.6h-0.6V263h-1.2v-0.4l1.3-1.9h0.6v1.8h0.3V263z M-107.7,262.5V262c0-0.1,0-0.2,0-0.4
				c0-0.2,0-0.2,0-0.3h0c0,0.1-0.1,0.2-0.2,0.3l-0.5,0.8H-107.7z"/>
			<path class="st11" d="M-106.3,263.6l1.1-2.4h-1.4v-0.5h2.1v0.4l-1.1,2.5H-106.3z"/>
		</g>
		<g class="st10">
			<path class="st11" d="M-139.7,263.6h-2v-0.4l0.7-0.7c0.2-0.2,0.4-0.4,0.4-0.5c0.1-0.1,0.1-0.2,0.1-0.2c0-0.1,0-0.1,0-0.2
				c0-0.1,0-0.2-0.1-0.3c-0.1-0.1-0.1-0.1-0.3-0.1c-0.1,0-0.2,0-0.3,0.1c-0.1,0.1-0.2,0.1-0.3,0.2l-0.3-0.4c0.1-0.1,0.3-0.2,0.4-0.3
				s0.2-0.1,0.3-0.1c0.1,0,0.2,0,0.4,0c0.2,0,0.3,0,0.5,0.1s0.2,0.2,0.3,0.3c0.1,0.1,0.1,0.3,0.1,0.4c0,0.1,0,0.3-0.1,0.4
				c0,0.1-0.1,0.2-0.2,0.4c-0.1,0.1-0.3,0.3-0.5,0.5l-0.4,0.3v0h1.2V263.6z"/>
			<path class="st11" d="M-137.9,263.6h-0.6v-1.7l0-0.3l0-0.3c-0.1,0.1-0.2,0.2-0.2,0.2l-0.3,0.3l-0.3-0.4l0.9-0.7h0.5V263.6z"/>
			<path class="st11" d="M-136.1,260.7c0.3,0,0.5,0.1,0.7,0.2s0.3,0.3,0.3,0.5c0,0.1,0,0.3-0.1,0.4s-0.2,0.2-0.4,0.3
				c0.2,0.1,0.4,0.2,0.5,0.4c0.1,0.1,0.1,0.3,0.1,0.4c0,0.2-0.1,0.4-0.3,0.6c-0.2,0.1-0.4,0.2-0.7,0.2c-0.3,0-0.6-0.1-0.7-0.2
				c-0.2-0.1-0.3-0.3-0.3-0.6c0-0.2,0-0.3,0.1-0.4s0.2-0.2,0.4-0.3c-0.2-0.1-0.3-0.2-0.4-0.3c-0.1-0.1-0.1-0.2-0.1-0.4
				c0-0.2,0.1-0.4,0.3-0.5S-136.4,260.7-136.1,260.7z M-136.6,262.8c0,0.1,0,0.2,0.1,0.3c0.1,0.1,0.2,0.1,0.3,0.1
				c0.2,0,0.3,0,0.3-0.1s0.1-0.2,0.1-0.3c0-0.1,0-0.2-0.1-0.2s-0.2-0.2-0.4-0.2C-136.4,262.5-136.6,262.6-136.6,262.8z
				 M-136.1,261.1c-0.1,0-0.2,0-0.2,0.1c-0.1,0.1-0.1,0.1-0.1,0.2c0,0.1,0,0.1,0.1,0.2c0.1,0.1,0.1,0.1,0.3,0.2
				c0.1-0.1,0.2-0.1,0.3-0.2c0.1-0.1,0.1-0.1,0.1-0.2c0-0.1,0-0.2-0.1-0.2C-135.9,261.1-136,261.1-136.1,261.1z"/>
		</g>
		<g class="st10">
			<path class="st11" d="M-170.2,263.6h-2v-0.4l0.7-0.7c0.2-0.2,0.4-0.4,0.4-0.5c0.1-0.1,0.1-0.2,0.1-0.2c0-0.1,0-0.1,0-0.2
				c0-0.1,0-0.2-0.1-0.3c-0.1-0.1-0.1-0.1-0.3-0.1c-0.1,0-0.2,0-0.3,0.1c-0.1,0.1-0.2,0.1-0.3,0.2l-0.3-0.4c0.1-0.1,0.3-0.2,0.4-0.3
				s0.2-0.1,0.3-0.1c0.1,0,0.2,0,0.4,0c0.2,0,0.3,0,0.5,0.1s0.2,0.2,0.3,0.3c0.1,0.1,0.1,0.3,0.1,0.4c0,0.1,0,0.3-0.1,0.4
				c0,0.1-0.1,0.2-0.2,0.4c-0.1,0.1-0.3,0.3-0.5,0.5l-0.4,0.3v0h1.2V263.6z"/>
			<path class="st11" d="M-167.9,263h-0.3v0.6h-0.6V263h-1.2v-0.4l1.3-1.9h0.6v1.8h0.3V263z M-168.8,262.5V262c0-0.1,0-0.2,0-0.4
				c0-0.2,0-0.2,0-0.3h0c0,0.1-0.1,0.2-0.2,0.3l-0.5,0.8H-168.8z"/>
			<path class="st11" d="M-166.6,260.7c0.3,0,0.5,0.1,0.7,0.2s0.3,0.3,0.3,0.5c0,0.1,0,0.3-0.1,0.4s-0.2,0.2-0.4,0.3
				c0.2,0.1,0.4,0.2,0.5,0.4c0.1,0.1,0.1,0.3,0.1,0.4c0,0.2-0.1,0.4-0.3,0.6c-0.2,0.1-0.4,0.2-0.7,0.2c-0.3,0-0.6-0.1-0.7-0.2
				c-0.2-0.1-0.3-0.3-0.3-0.6c0-0.2,0-0.3,0.1-0.4s0.2-0.2,0.4-0.3c-0.2-0.1-0.3-0.2-0.4-0.3c-0.1-0.1-0.1-0.2-0.1-0.4
				c0-0.2,0.1-0.4,0.3-0.5S-166.9,260.7-166.6,260.7z M-167.1,262.8c0,0.1,0,0.2,0.1,0.3c0.1,0.1,0.2,0.1,0.3,0.1
				c0.2,0,0.3,0,0.3-0.1s0.1-0.2,0.1-0.3c0-0.1,0-0.2-0.1-0.2s-0.2-0.2-0.4-0.2C-166.9,262.4-167.1,262.6-167.1,262.8z
				 M-166.6,261.1c-0.1,0-0.2,0-0.2,0.1c-0.1,0.1-0.1,0.1-0.1,0.2c0,0.1,0,0.1,0.1,0.2c0.1,0.1,0.1,0.1,0.3,0.2
				c0.1-0.1,0.2-0.1,0.3-0.2c0.1-0.1,0.1-0.1,0.1-0.2c0-0.1,0-0.2-0.1-0.2C-166.5,261.1-166.5,261.1-166.6,261.1z"/>
		</g>
	</g>
	<g id="_x31__1_">
		<g id="XMLID_1_">
			<path id="XMLID_55_" class="st22" d="M-73.1,194.9h-14.1h-7.6h-4.4v4.4l0,0V221l0,0v4.4h4.4h7.6h14.1c2.5,0,4.4-2,4.4-4.4v-21.7
				C-68.7,196.9-70.7,194.9-73.1,194.9z"/>
			<path id="XMLID_12_" class="st23" d="M-85.4,218.2L-85.4,218.2h-13.8l0,0l0,0v2.8l0,0v4.5h4.5l0,0h21.6c2.5,0,4.5-2,4.5-4.5v-2.8
				H-85.4z"/>
		</g>
		<g id="XMLID_36_">
			<rect id="XMLID_180_" x="-129.7" y="194.9" class="st24" width="30.6" height="30.6"/>
			<rect id="XMLID_179_" x="-129.7" y="218.2" class="st25" width="30.6" height="7.3"/>
		</g>
		<g id="XMLID_17_">
			<rect id="XMLID_174_" x="-160.3" y="194.9" class="st26" width="30.6" height="30.6"/>
			<rect id="XMLID_167_" x="-160.3" y="218.2" class="st27" width="30.6" height="7.3"/>
		</g>
		<g id="XMLID_2_">
			<path id="XMLID_37_" class="st28" d="M-213.8,194.9L-213.8,194.9h-3c-2.5,0-4.4,2-4.4,4.4V221c0,2.5,2,4.4,4.4,4.4h21.7
				c2.5,0,4.4-2,4.4-4.4v-2.8v-18.9v-4.4C-190.7,194.9-213.8,194.9-213.8,194.9z"/>
			<path id="XMLID_39_" class="st29" d="M-190.7,218.2H-206l0,0h-15.3v2.8c0,2.5,2,4.5,4.5,4.5h21.6l0,0h4.5V218.2z"/>
		</g>
		<g id="XMLID_8_">
			<rect id="XMLID_166_" x="-190.7" y="194.9" class="st30" width="30.6" height="30.6"/>
			<rect id="XMLID_164_" x="-190.7" y="218.2" class="st31" width="30.6" height="7.3"/>
		</g>
	</g>
	<g id="Text_1">
		<g class="st10">
			<path class="st11" d="M-47.7,220.9c0,0.2-0.1,0.3-0.2,0.5s-0.3,0.2-0.5,0.3v0c0.2,0,0.4,0.1,0.5,0.2c0.1,0.1,0.2,0.3,0.2,0.5
				c0,0.3-0.1,0.5-0.3,0.6c-0.2,0.2-0.5,0.2-0.9,0.2c-0.3,0-0.6-0.1-0.8-0.2v-0.5c0.1,0.1,0.2,0.1,0.4,0.1c0.1,0,0.3,0.1,0.4,0.1
				c0.2,0,0.3,0,0.4-0.1c0.1-0.1,0.1-0.2,0.1-0.3c0-0.1-0.1-0.2-0.2-0.3c-0.1-0.1-0.3-0.1-0.5-0.1h-0.2v-0.5h0.2
				c0.2,0,0.4,0,0.5-0.1c0.1-0.1,0.2-0.2,0.2-0.3c0-0.2-0.1-0.3-0.4-0.3c-0.1,0-0.2,0-0.3,0s-0.2,0.1-0.3,0.2l-0.3-0.4
				c0.3-0.2,0.6-0.3,0.9-0.3c0.3,0,0.5,0.1,0.7,0.2S-47.7,220.7-47.7,220.9z"/>
			<path class="st11" d="M-45.3,221.7c0,0.5-0.1,0.9-0.2,1.1c-0.2,0.2-0.4,0.4-0.8,0.4c-0.3,0-0.6-0.1-0.7-0.4
				c-0.2-0.2-0.3-0.6-0.3-1.1c0-0.5,0.1-0.9,0.2-1.1c0.2-0.2,0.4-0.4,0.8-0.4c0.3,0,0.6,0.1,0.8,0.4
				C-45.4,220.8-45.3,221.2-45.3,221.7z M-46.7,221.7c0,0.4,0,0.6,0.1,0.8c0.1,0.2,0.2,0.2,0.3,0.2c0.1,0,0.2-0.1,0.3-0.2
				c0.1-0.2,0.1-0.4,0.1-0.8c0-0.4,0-0.6-0.1-0.8c-0.1-0.2-0.2-0.2-0.3-0.2c-0.1,0-0.2,0.1-0.3,0.2
				C-46.7,221.1-46.7,221.3-46.7,221.7z"/>
		</g>
		<g class="st10">
			<path class="st11" d="M-79.2,223.1h-0.6v-1.7l0-0.3l0-0.3c-0.1,0.1-0.2,0.2-0.2,0.2l-0.3,0.3l-0.3-0.4l0.9-0.7h0.5V223.1z"/>
			<path class="st11" d="M-76.9,223.1h-0.6v-1.7l0-0.3l0-0.3c-0.1,0.1-0.2,0.2-0.2,0.2l-0.3,0.3l-0.3-0.4l0.9-0.7h0.5V223.1z"/>
			<path class="st11" d="M-75,221.3c0.3,0,0.5,0.1,0.7,0.2s0.2,0.4,0.2,0.6c0,0.3-0.1,0.6-0.3,0.7c-0.2,0.2-0.5,0.3-0.8,0.3
				c-0.3,0-0.6-0.1-0.8-0.2v-0.5c0.1,0.1,0.2,0.1,0.4,0.1c0.1,0,0.3,0.1,0.4,0.1c0.4,0,0.6-0.2,0.6-0.5c0-0.3-0.2-0.4-0.6-0.4
				c-0.1,0-0.1,0-0.2,0c-0.1,0-0.2,0-0.2,0l-0.2-0.1l0.1-1.5h1.6v0.5h-1l-0.1,0.6l0.1,0C-75.2,221.3-75.1,221.3-75,221.3z"/>
		</g>
		<g class="st10">
			<path class="st11" d="M-109.7,223.1h-0.6v-1.7l0-0.3l0-0.3c-0.1,0.1-0.2,0.2-0.2,0.2l-0.3,0.3l-0.3-0.4l0.9-0.7h0.5V223.1z"/>
			<path class="st11" d="M-106.9,221.5c0,0.6-0.1,1-0.4,1.3c-0.2,0.3-0.6,0.4-1.1,0.4c-0.2,0-0.3,0-0.4,0v-0.5c0.1,0,0.2,0,0.3,0
				c0.2,0,0.4,0,0.5-0.1c0.1-0.1,0.2-0.2,0.3-0.3c0.1-0.1,0.1-0.3,0.1-0.5h0c-0.1,0.1-0.2,0.2-0.3,0.3c-0.1,0-0.2,0.1-0.4,0.1
				c-0.2,0-0.4-0.1-0.6-0.2c-0.1-0.2-0.2-0.4-0.2-0.7c0-0.3,0.1-0.6,0.3-0.7c0.2-0.2,0.4-0.3,0.7-0.3c0.2,0,0.4,0,0.6,0.1
				c0.2,0.1,0.3,0.2,0.4,0.4S-106.9,221.2-106.9,221.5z M-107.9,220.7c-0.1,0-0.2,0-0.3,0.1c-0.1,0.1-0.1,0.2-0.1,0.4
				c0,0.1,0,0.2,0.1,0.3c0.1,0.1,0.2,0.1,0.3,0.1c0.1,0,0.2,0,0.3-0.1c0.1-0.1,0.1-0.2,0.1-0.3c0-0.2,0-0.3-0.1-0.4
				C-107.7,220.8-107.8,220.7-107.9,220.7z"/>
			<path class="st11" d="M-104.7,220.9c0,0.2-0.1,0.3-0.2,0.5c-0.1,0.1-0.3,0.2-0.5,0.3v0c0.2,0,0.4,0.1,0.5,0.2
				c0.1,0.1,0.2,0.3,0.2,0.5c0,0.3-0.1,0.5-0.3,0.6c-0.2,0.2-0.5,0.2-0.9,0.2c-0.3,0-0.6-0.1-0.8-0.2v-0.5c0.1,0.1,0.2,0.1,0.4,0.1
				s0.3,0.1,0.4,0.1c0.2,0,0.3,0,0.4-0.1c0.1-0.1,0.1-0.2,0.1-0.3c0-0.1-0.1-0.2-0.2-0.3s-0.3-0.1-0.5-0.1h-0.2v-0.5h0.2
				c0.2,0,0.4,0,0.5-0.1c0.1-0.1,0.2-0.2,0.2-0.3c0-0.2-0.1-0.3-0.4-0.3c-0.1,0-0.2,0-0.3,0c-0.1,0-0.2,0.1-0.3,0.2l-0.3-0.4
				c0.3-0.2,0.6-0.3,0.9-0.3c0.3,0,0.5,0.1,0.7,0.2C-104.8,220.5-104.7,220.7-104.7,220.9z"/>
		</g>
		<g class="st10">
			<path class="st11" d="M-139.7,223.1h-2v-0.4l0.7-0.7c0.2-0.2,0.4-0.4,0.4-0.5c0.1-0.1,0.1-0.2,0.1-0.2s0-0.1,0-0.2
				c0-0.1,0-0.2-0.1-0.3s-0.1-0.1-0.3-0.1c-0.1,0-0.2,0-0.3,0.1c-0.1,0.1-0.2,0.1-0.3,0.2l-0.3-0.4c0.1-0.1,0.3-0.2,0.4-0.3
				c0.1,0,0.2-0.1,0.3-0.1c0.1,0,0.2,0,0.4,0c0.2,0,0.3,0,0.5,0.1s0.2,0.2,0.3,0.3c0.1,0.1,0.1,0.3,0.1,0.4c0,0.1,0,0.3-0.1,0.4
				s-0.1,0.2-0.2,0.4c-0.1,0.1-0.3,0.3-0.5,0.5l-0.4,0.3v0h1.2V223.1z"/>
			<path class="st11" d="M-137.4,223.1h-2v-0.4l0.7-0.7c0.2-0.2,0.4-0.4,0.4-0.5c0.1-0.1,0.1-0.2,0.1-0.2s0-0.1,0-0.2
				c0-0.1,0-0.2-0.1-0.3s-0.1-0.1-0.3-0.1c-0.1,0-0.2,0-0.3,0.1c-0.1,0.1-0.2,0.1-0.3,0.2l-0.3-0.4c0.1-0.1,0.3-0.2,0.4-0.3
				c0.1,0,0.2-0.1,0.3-0.1c0.1,0,0.2,0,0.4,0c0.2,0,0.3,0,0.5,0.1s0.2,0.2,0.3,0.3c0.1,0.1,0.1,0.3,0.1,0.4c0,0.1,0,0.3-0.1,0.4
				s-0.1,0.2-0.2,0.4c-0.1,0.1-0.3,0.3-0.5,0.5l-0.4,0.3v0h1.2V223.1z"/>
			<path class="st11" d="M-135.1,223.1h-2v-0.4l0.7-0.7c0.2-0.2,0.4-0.4,0.4-0.5c0.1-0.1,0.1-0.2,0.1-0.2s0-0.1,0-0.2
				c0-0.1,0-0.2-0.1-0.3s-0.1-0.1-0.3-0.1c-0.1,0-0.2,0-0.3,0.1c-0.1,0.1-0.2,0.1-0.3,0.2l-0.3-0.4c0.1-0.1,0.3-0.2,0.4-0.3
				c0.1,0,0.2-0.1,0.3-0.1c0.1,0,0.2,0,0.4,0c0.2,0,0.3,0,0.5,0.1s0.2,0.2,0.3,0.3c0.1,0.1,0.1,0.3,0.1,0.4c0,0.1,0,0.3-0.1,0.4
				s-0.1,0.2-0.2,0.4c-0.1,0.1-0.3,0.3-0.5,0.5l-0.4,0.3v0h1.2V223.1z"/>
		</g>
		<g class="st10">
			<path class="st11" d="M-170.2,223.1h-2v-0.4l0.7-0.7c0.2-0.2,0.4-0.4,0.4-0.5c0.1-0.1,0.1-0.2,0.1-0.2s0-0.1,0-0.2
				c0-0.1,0-0.2-0.1-0.3s-0.1-0.1-0.3-0.1c-0.1,0-0.2,0-0.3,0.1c-0.1,0.1-0.2,0.1-0.3,0.2l-0.3-0.4c0.1-0.1,0.3-0.2,0.4-0.3
				c0.1,0,0.2-0.1,0.3-0.1c0.1,0,0.2,0,0.4,0c0.2,0,0.3,0,0.5,0.1s0.2,0.2,0.3,0.3c0.1,0.1,0.1,0.3,0.1,0.4c0,0.1,0,0.3-0.1,0.4
				s-0.1,0.2-0.2,0.4c-0.1,0.1-0.3,0.3-0.5,0.5l-0.4,0.3v0h1.2V223.1z"/>
			<path class="st11" d="M-167.9,223.1h-2v-0.4l0.7-0.7c0.2-0.2,0.4-0.4,0.4-0.5c0.1-0.1,0.1-0.2,0.1-0.2s0-0.1,0-0.2
				c0-0.1,0-0.2-0.1-0.3s-0.1-0.1-0.3-0.1c-0.1,0-0.2,0-0.3,0.1c-0.1,0.1-0.2,0.1-0.3,0.2l-0.3-0.4c0.1-0.1,0.3-0.2,0.4-0.3
				c0.1,0,0.2-0.1,0.3-0.1c0.1,0,0.2,0,0.4,0c0.2,0,0.3,0,0.5,0.1s0.2,0.2,0.3,0.3c0.1,0.1,0.1,0.3,0.1,0.4c0,0.1,0,0.3-0.1,0.4
				s-0.1,0.2-0.2,0.4c-0.1,0.1-0.3,0.3-0.5,0.5l-0.4,0.3v0h1.2V223.1z"/>
			<path class="st11" d="M-165.6,221.5c0,0.6-0.1,1-0.4,1.3c-0.2,0.3-0.6,0.4-1.1,0.4c-0.2,0-0.3,0-0.4,0v-0.5c0.1,0,0.2,0,0.3,0
				c0.2,0,0.4,0,0.5-0.1c0.1-0.1,0.2-0.2,0.3-0.3c0.1-0.1,0.1-0.3,0.1-0.5h0c-0.1,0.1-0.2,0.2-0.3,0.3c-0.1,0-0.2,0.1-0.4,0.1
				c-0.2,0-0.4-0.1-0.6-0.2c-0.1-0.2-0.2-0.4-0.2-0.7c0-0.3,0.1-0.6,0.3-0.7c0.2-0.2,0.4-0.3,0.7-0.3c0.2,0,0.4,0,0.6,0.1
				c0.2,0.1,0.3,0.2,0.4,0.4S-165.6,221.2-165.6,221.5z M-166.7,220.7c-0.1,0-0.2,0-0.3,0.1c-0.1,0.1-0.1,0.2-0.1,0.4
				c0,0.1,0,0.2,0.1,0.3c0.1,0.1,0.2,0.1,0.3,0.1c0.1,0,0.2,0,0.3-0.1c0.1-0.1,0.1-0.2,0.1-0.3c0-0.2,0-0.3-0.1-0.4
				C-166.4,220.8-166.5,220.7-166.7,220.7z"/>
		</g>
	</g>
</g>
<g id="Text_Preserved" class="st32">
	<text id="XMLID_20_" transform="matrix(1 0 0 1 -50.291 304.0275)" class="st33 st34 st35">248</text>
	<text id="XMLID_19_" transform="matrix(1 0 0 1 -80.8115 304.0275)" class="st33 st34 st35">137</text>
	<text id="XMLID_18_" transform="matrix(1 0 0 1 -111.332 304.0275)" class="st33 st34 st35">180</text>
	<text id="XMLID_16_" transform="matrix(1 0 0 1 -141.853 304.0275)" class="st33 st34 st35">167</text>
	<text id="XMLID_15_" transform="matrix(1 0 0 1 -172.373 304.0275)" class="st33 st34 st35">210</text>
	<text id="XMLID_14_" transform="matrix(1 0 0 1 -50.291 263.5715)" class="st33 st34 st35">67</text>
	<text id="XMLID_13_" transform="matrix(1 0 0 1 -80.8115 263.5715)" class="st33 st34 st35">153</text>
	<text id="XMLID_11_" transform="matrix(1 0 0 1 -111.332 263.5715)" class="st33 st34 st35">147</text>
	<text id="XMLID_10_" transform="matrix(1 0 0 1 -141.853 263.5715)" class="st33 st34 st35">218</text>
	<text id="XMLID_9_" transform="matrix(1 0 0 1 -172.373 263.5705)" class="st33 st34 st35">248</text>
	<text id="XMLID_7_" transform="matrix(1 0 0 1 -49.7568 223.1125)" class="st33 st34 st35">30</text>
	<text id="XMLID_6_" transform="matrix(1 0 0 1 -80.8115 223.1125)" class="st33 st34 st35">115</text>
	<text id="XMLID_5_" transform="matrix(1 0 0 1 -111.332 223.1125)" class="st33 st34 st35">193</text>
	<text id="XMLID_4_" transform="matrix(1 0 0 1 -141.853 223.1125)" class="st33 st34 st35">222</text>
	<text id="XMLID_3_" transform="matrix(1 0 0 1 -172.373 223.1125)" class="st33 st34 st35">229</text>
</g>
</svg>
