<?xml version="1.0" encoding="utf-8"?>
<!-- Generator: Adobe Illustrator 19.0.0, SVG Export Plug-In . SVG Version: 6.00 Build 0)  -->
<svg version="1.1" xmlns="http://www.w3.org/2000/svg" xmlns:xlink="http://www.w3.org/1999/xlink" x="0px" y="0px"
	 viewBox="-249 191.3 299.4 118.7" style="enable-background:new -249 191.3 299.4 118.7;" xml:space="preserve">
<style type="text/css">
	.st0{fill:#A8A8A8;}
	.st1{fill:#999999;}
	.st2{fill:#AF875F;}
	.st3{fill:#A36F45;}
	.st4{fill:#D7AF87;}
	.st5{fill:#BC8E6C;}
	.st6{fill:#D65F5F;}
	.st7{fill:#BC4D4D;}
	.st8{fill:#FF8787;}
	.st9{fill:#F46D6D;}
	.st10{enable-background:new    ;}
	.st11{fill:#FFFFFF;}
	.st12{fill:#5F87AE;}
	.st13{fill:#4A76A1;}
	.st14{fill:#AFD7FF;}
	.st15{fill:#8DC0F2;}
	.st16{fill:#AFAFFF;}
	.st17{fill:#8D8DF2;}
	.st18{fill:#FFD7D7;}
	.st19{fill:#F4B5B5;}
	.st20{fill:#FFAFD7;}
	.st21{fill:#F28DC0;}
	.st22{fill:#008787;}
	.st23{fill:#007A7A;}
	.st24{fill:#87D7AF;}
	.st25{fill:#6BCA9A;}
	.st26{fill:#D7FFAF;}
	.st27{fill:#B7E87E;}
	.st28{fill:#FFFDA9;}
	.st29{fill:#EDE188;}
	.st30{fill:#FFD687;}
	.st31{fill:#F4C66D;}
	.st32{display:none;}
	.st33{display:inline;fill:#FFFFFF;}
	.st34{font-family:'Helvetica-Bold';}
	.st35{font-size:4.0159px;}
</style>
<g id="Layer_1">
	<g id="_x33__1_">
		<g id="XMLID_44_">
			<path id="XMLID_46_" class="st0" d="M18.5,275.8H-3.2l0,0h-4.4v4.4v21.7v4.4H4.4l0,0h14.1c2.5,0,4.4-2,4.4-4.4v-21.7
				C22.9,277.8,20.9,275.8,18.5,275.8z"/>
			<path id="XMLID_45_" class="st1" d="M6.1,299.1H-7.7l0,0v2.8l0,0v4.5H6.1l0,0h12.3c2.5,0,4.5-2,4.5-4.5v-2.8H6.1z"/>
		</g>
		<g id="XMLID_40_">
			<rect id="XMLID_43_" x="-38.2" y="275.8" class="st2" width="30.6" height="30.6"/>
			<rect id="XMLID_41_" x="-38.2" y="299.1" class="st3" width="30.6" height="7.3"/>
		</g>
		<g id="XMLID_37_">
			<rect id="XMLID_39_" x="-68.7" y="275.8" class="st4" width="30.6" height="30.6"/>
			<rect id="XMLID_38_" x="-68.7" y="299.1" class="st5" width="30.6" height="7.3"/>
		</g>
		<g id="XMLID_12_">
			<rect id="XMLID_36_" x="-99.2" y="275.8" class="st6" width="30.6" height="30.6"/>
			<rect id="XMLID_17_" x="-99.2" y="299.1" class="st7" width="30.6" height="7.3"/>
		</g>
		<g id="XMLID_1_">
			<path id="XMLID_8_" class="st8" d="M-103.6,275.8L-103.6,275.8h-21.7c-2.5,0-4.4,2-4.4,4.4v21.7c0,2.5,2,4.4,4.4,4.4h21.7
				c2.5,0,4.4-2,4.4-4.4v-2.8v-18.9v-4.4H-103.6z"/>
			<path id="XMLID_2_" class="st9" d="M-99.1,299.1h-15.3h-15.3v2.8c0,2.5,2,4.5,4.5,4.5h10.8l0,0h15.3L-99.1,299.1L-99.1,299.1z"/>
		</g>
	</g>
	<g id="Text_3">
		<g class="st10">
			<path class="st11" d="M-2.3,304h-2v-0.4l0.7-0.7c0.2-0.2,0.4-0.4,0.4-0.5c0.1-0.1,0.1-0.2,0.1-0.2c0-0.1,0-0.1,0-0.2
				c0-0.1,0-0.2-0.1-0.3c-0.1-0.1-0.1-0.1-0.3-0.1c-0.1,0-0.2,0-0.3,0.1c-0.1,0.1-0.2,0.1-0.3,0.2l-0.3-0.4c0.1-0.1,0.3-0.2,0.4-0.3
				s0.2-0.1,0.3-0.1c0.1,0,0.2,0,0.4,0c0.2,0,0.3,0,0.5,0.1c0.1,0.1,0.2,0.2,0.3,0.3c0.1,0.1,0.1,0.3,0.1,0.4c0,0.1,0,0.3-0.1,0.4
				c0,0.1-0.1,0.2-0.2,0.4c-0.1,0.1-0.3,0.3-0.5,0.5l-0.4,0.3v0h1.2V304z"/>
			<path class="st11" d="M0.1,303.4h-0.3v0.6h-0.6v-0.6h-1.2V303l1.3-1.9h0.6v1.8h0.3V303.4z M-0.9,303v-0.5c0-0.1,0-0.2,0-0.4
				c0-0.2,0-0.2,0-0.3h0c0,0.1-0.1,0.2-0.2,0.3l-0.5,0.8H-0.9z"/>
			<path class="st11" d="M1.3,301.1c0.3,0,0.5,0.1,0.7,0.2s0.3,0.3,0.3,0.5c0,0.1,0,0.3-0.1,0.4s-0.2,0.2-0.4,0.3
				c0.2,0.1,0.4,0.2,0.5,0.4c0.1,0.1,0.1,0.3,0.1,0.4c0,0.2-0.1,0.4-0.3,0.6c-0.2,0.1-0.4,0.2-0.7,0.2c-0.3,0-0.6-0.1-0.7-0.2
				c-0.2-0.1-0.3-0.3-0.3-0.6c0-0.2,0-0.3,0.1-0.4s0.2-0.2,0.4-0.3c-0.2-0.1-0.3-0.2-0.4-0.3c-0.1-0.1-0.1-0.2-0.1-0.4
				c0-0.2,0.1-0.4,0.3-0.5S1,301.1,1.3,301.1z M0.8,303.3c0,0.1,0,0.2,0.1,0.3c0.1,0.1,0.2,0.1,0.3,0.1c0.2,0,0.3,0,0.3-0.1
				s0.1-0.2,0.1-0.3c0-0.1,0-0.2-0.1-0.2s-0.2-0.2-0.4-0.2C1,302.9,0.8,303.1,0.8,303.3z M1.3,301.6c-0.1,0-0.2,0-0.2,0.1
				c-0.1,0.1-0.1,0.1-0.1,0.2c0,0.1,0,0.1,0.1,0.2c0,0.1,0.1,0.1,0.3,0.2c0.1-0.1,0.2-0.1,0.3-0.2s0.1-0.1,0.1-0.2
				c0-0.1,0-0.2-0.1-0.2C1.4,301.6,1.4,301.6,1.3,301.6z"/>
		</g>
		<g class="st10">
			<path class="st11" d="M-33.3,304h-0.6v-1.7l0-0.3l0-0.3c-0.1,0.1-0.2,0.2-0.2,0.2l-0.3,0.3l-0.3-0.4l0.9-0.7h0.5V304z"/>
			<path class="st11" d="M-30.6,301.8c0,0.2-0.1,0.3-0.2,0.5c-0.1,0.1-0.3,0.2-0.5,0.3v0c0.2,0,0.4,0.1,0.5,0.2
				c0.1,0.1,0.2,0.3,0.2,0.5c0,0.3-0.1,0.5-0.3,0.6c-0.2,0.2-0.5,0.2-0.9,0.2c-0.3,0-0.6-0.1-0.8-0.2v-0.5c0.1,0.1,0.2,0.1,0.4,0.1
				c0.1,0,0.3,0.1,0.4,0.1c0.2,0,0.3,0,0.4-0.1c0.1-0.1,0.1-0.2,0.1-0.3c0-0.1-0.1-0.2-0.2-0.3c-0.1-0.1-0.3-0.1-0.5-0.1h-0.2v-0.5
				h0.2c0.2,0,0.4,0,0.5-0.1c0.1-0.1,0.2-0.2,0.2-0.3c0-0.2-0.1-0.3-0.4-0.3c-0.1,0-0.2,0-0.3,0c-0.1,0-0.2,0.1-0.3,0.2l-0.3-0.4
				c0.3-0.2,0.6-0.3,0.9-0.3c0.3,0,0.5,0.1,0.7,0.2S-30.6,301.6-30.6,301.8z"/>
			<path class="st11" d="M-30,304l1.1-2.4h-1.4v-0.5h2.1v0.4l-1.1,2.5H-30z"/>
		</g>
		<g class="st10">
			<path class="st11" d="M-63.9,304h-0.6v-1.7l0-0.3l0-0.3c-0.1,0.1-0.2,0.2-0.2,0.2l-0.3,0.3l-0.3-0.4l0.9-0.7h0.5V304z"/>
			<path class="st11" d="M-62.1,301.1c0.3,0,0.5,0.1,0.7,0.2s0.3,0.3,0.3,0.5c0,0.1,0,0.3-0.1,0.4s-0.2,0.2-0.4,0.3
				c0.2,0.1,0.4,0.2,0.5,0.4c0.1,0.1,0.1,0.3,0.1,0.4c0,0.2-0.1,0.4-0.3,0.6c-0.2,0.1-0.4,0.2-0.7,0.2c-0.3,0-0.6-0.1-0.7-0.2
				c-0.2-0.1-0.3-0.3-0.3-0.6c0-0.2,0-0.3,0.1-0.4s0.2-0.2,0.4-0.3c-0.2-0.1-0.3-0.2-0.4-0.3c-0.1-0.1-0.1-0.2-0.1-0.4
				c0-0.2,0.1-0.4,0.3-0.5S-62.3,301.1-62.1,301.1z M-62.5,303.3c0,0.1,0,0.2,0.1,0.3c0.1,0.1,0.2,0.1,0.3,0.1c0.2,0,0.3,0,0.3-0.1
				s0.1-0.2,0.1-0.3c0-0.1,0-0.2-0.1-0.2s-0.2-0.2-0.4-0.2C-62.4,302.9-62.5,303.1-62.5,303.3z M-62.1,301.6c-0.1,0-0.2,0-0.2,0.1
				c-0.1,0.1-0.1,0.1-0.1,0.2c0,0.1,0,0.1,0.1,0.2c0.1,0.1,0.1,0.1,0.3,0.2c0.1-0.1,0.2-0.1,0.3-0.2c0.1-0.1,0.1-0.1,0.1-0.2
				c0-0.1,0-0.2-0.1-0.2C-61.9,301.6-62,301.6-62.1,301.6z"/>
			<path class="st11" d="M-58.8,302.6c0,0.5-0.1,0.9-0.2,1.1c-0.2,0.2-0.4,0.4-0.8,0.4c-0.3,0-0.6-0.1-0.7-0.4
				c-0.2-0.2-0.3-0.6-0.3-1.1c0-0.5,0.1-0.9,0.2-1.1c0.2-0.2,0.4-0.4,0.8-0.4c0.3,0,0.6,0.1,0.8,0.4
				C-58.9,301.7-58.8,302.1-58.8,302.6z M-60.2,302.6c0,0.4,0,0.6,0.1,0.8c0.1,0.2,0.2,0.2,0.3,0.2c0.1,0,0.2-0.1,0.3-0.2
				c0.1-0.2,0.1-0.4,0.1-0.8c0-0.4,0-0.6-0.1-0.8s-0.2-0.2-0.3-0.2c-0.1,0-0.2,0.1-0.3,0.2S-60.2,302.2-60.2,302.6z"/>
		</g>
		<g class="st10">
			<path class="st11" d="M-94.4,304H-95v-1.7l0-0.3l0-0.3c-0.1,0.1-0.2,0.2-0.2,0.2l-0.3,0.3l-0.3-0.4l0.9-0.7h0.5V304z"/>
			<path class="st11" d="M-93.6,302.8c0-0.6,0.1-1,0.4-1.3s0.6-0.4,1.1-0.4c0.2,0,0.3,0,0.4,0v0.5c-0.1,0-0.2,0-0.3,0
				c-0.2,0-0.4,0-0.5,0.1c-0.1,0.1-0.2,0.2-0.3,0.3c-0.1,0.1-0.1,0.3-0.1,0.5h0c0.1-0.2,0.3-0.3,0.6-0.3c0.3,0,0.5,0.1,0.6,0.2
				c0.1,0.2,0.2,0.4,0.2,0.7c0,0.3-0.1,0.5-0.3,0.7c-0.2,0.2-0.4,0.3-0.7,0.3c-0.2,0-0.4,0-0.6-0.1c-0.2-0.1-0.3-0.2-0.4-0.4
				C-93.6,303.3-93.6,303.1-93.6,302.8z M-92.6,303.6c0.1,0,0.2,0,0.3-0.1s0.1-0.2,0.1-0.4c0-0.1,0-0.2-0.1-0.3
				c-0.1-0.1-0.2-0.1-0.3-0.1c-0.1,0-0.2,0-0.3,0.1c-0.1,0.1-0.1,0.2-0.1,0.3c0,0.2,0,0.3,0.1,0.4
				C-92.8,303.5-92.7,303.6-92.6,303.6z"/>
			<path class="st11" d="M-91,304l1.1-2.4h-1.4v-0.5h2.1v0.4l-1.1,2.5H-91z"/>
		</g>
		<g class="st10">
			<path class="st11" d="M-124.4,304h-2v-0.4l0.7-0.7c0.2-0.2,0.4-0.4,0.4-0.5c0.1-0.1,0.1-0.2,0.1-0.2c0-0.1,0-0.1,0-0.2
				c0-0.1,0-0.2-0.1-0.3c-0.1-0.1-0.1-0.1-0.3-0.1c-0.1,0-0.2,0-0.3,0.1c-0.1,0.1-0.2,0.1-0.3,0.2l-0.3-0.4c0.1-0.1,0.3-0.2,0.4-0.3
				s0.2-0.1,0.3-0.1c0.1,0,0.2,0,0.4,0c0.2,0,0.3,0,0.5,0.1s0.2,0.2,0.3,0.3c0.1,0.1,0.1,0.3,0.1,0.4c0,0.1,0,0.3-0.1,0.4
				c0,0.1-0.1,0.2-0.2,0.4c-0.1,0.1-0.3,0.3-0.5,0.5l-0.4,0.3v0h1.2V304z"/>
			<path class="st11" d="M-122.6,304h-0.6v-1.7l0-0.3l0-0.3c-0.1,0.1-0.2,0.2-0.2,0.2l-0.3,0.3l-0.3-0.4l0.9-0.7h0.5V304z"/>
			<path class="st11" d="M-119.8,302.6c0,0.5-0.1,0.9-0.2,1.1c-0.2,0.2-0.4,0.4-0.8,0.4c-0.3,0-0.6-0.1-0.7-0.4
				c-0.2-0.2-0.3-0.6-0.3-1.1c0-0.5,0.1-0.9,0.2-1.1c0.2-0.2,0.4-0.4,0.8-0.4c0.3,0,0.6,0.1,0.8,0.4
				C-119.9,301.7-119.8,302.1-119.8,302.6z M-121.2,302.6c0,0.4,0,0.6,0.1,0.8c0.1,0.2,0.2,0.2,0.3,0.2c0.1,0,0.2-0.1,0.3-0.2
				c0.1-0.2,0.1-0.4,0.1-0.8c0-0.4,0-0.6-0.1-0.8s-0.2-0.2-0.3-0.2c-0.1,0-0.2,0.1-0.3,0.2S-121.2,302.2-121.2,302.6z"/>
		</g>
	</g>
	<g id="_x32_">
		<g id="XMLID_305_">
			<path id="XMLID_307_" class="st12" d="M-27.4,235.4h-14.1h-7.6h-4.4v4.4l0,0v21.7l0,0v4.4h4.4h7.6h14.1c2.5,0,4.4-2,4.4-4.4
				v-21.7C-23,237.3-25,235.4-27.4,235.4z"/>
			<path id="XMLID_306_" class="st13" d="M-39.8,258.7L-39.8,258.7h-13.8l0,0l0,0v2.8l0,0v4.5h4.5l0,0h21.6c2.5,0,4.5-2,4.5-4.5
				v-2.8H-39.8z"/>
		</g>
		<g id="XMLID_317_">
			<rect id="XMLID_319_" x="-84" y="235.4" class="st14" width="30.6" height="30.6"/>
			<rect id="XMLID_318_" x="-84" y="258.7" class="st15" width="30.6" height="7.3"/>
		</g>
		<g id="XMLID_314_">
			<rect id="XMLID_316_" x="-114.6" y="235.4" class="st16" width="30.6" height="30.6"/>
			<rect id="XMLID_315_" x="-114.6" y="258.7" class="st17" width="30.6" height="7.3"/>
		</g>
		<g id="XMLID_308_">
			<path id="XMLID_310_" class="st18" d="M-168.2,235.4L-168.2,235.4h-3c-2.5,0-4.4,2-4.4,4.4v21.7c0,2.5,2,4.4,4.4,4.4h21.7
				c2.5,0,4.4-2,4.4-4.4v-2.8v-18.9v-4.4H-168.2z"/>
			<path id="XMLID_309_" class="st19" d="M-145,258.7h-15.3l0,0h-15.3v2.8c0,2.5,2,4.5,4.5,4.5h21.6l0,0h4.5V258.7z"/>
		</g>
		<g id="XMLID_311_">
			<rect id="XMLID_313_" x="-145.1" y="235.4" class="st20" width="30.6" height="30.6"/>
			<rect id="XMLID_312_" x="-145.1" y="258.7" class="st21" width="30.6" height="7.3"/>
		</g>
	</g>
	<g id="Text_2">
		<g class="st10">
			<path class="st11" d="M-50.1,262.4c0-0.6,0.1-1,0.4-1.3s0.6-0.4,1.1-0.4c0.2,0,0.3,0,0.4,0v0.5c-0.1,0-0.2,0-0.3,0
				c-0.2,0-0.4,0-0.5,0.1c-0.1,0.1-0.2,0.2-0.3,0.3s-0.1,0.3-0.1,0.5h0c0.1-0.2,0.3-0.3,0.6-0.3c0.3,0,0.5,0.1,0.6,0.2
				c0.1,0.2,0.2,0.4,0.2,0.7c0,0.3-0.1,0.5-0.3,0.7c-0.2,0.2-0.4,0.3-0.7,0.3c-0.2,0-0.4,0-0.6-0.1c-0.2-0.1-0.3-0.2-0.4-0.4
				S-50.1,262.6-50.1,262.4z M-49.1,263.1c0.1,0,0.2,0,0.3-0.1s0.1-0.2,0.1-0.4c0-0.1,0-0.2-0.1-0.3c-0.1-0.1-0.2-0.1-0.3-0.1
				c-0.1,0-0.2,0-0.3,0.1c-0.1,0.1-0.1,0.2-0.1,0.3c0,0.2,0,0.3,0.1,0.4C-49.3,263.1-49.2,263.1-49.1,263.1z"/>
			<path class="st11" d="M-47.6,263.6l1.1-2.4h-1.4v-0.5h2.1v0.4l-1.1,2.5H-47.6z"/>
		</g>
		<g class="st10">
			<path class="st11" d="M-79.2,263.6h-0.6v-1.7l0-0.3l0-0.3c-0.1,0.1-0.2,0.2-0.2,0.2l-0.3,0.3l-0.3-0.4l0.9-0.7h0.5V263.6z"/>
			<path class="st11" d="M-77.3,261.7c0.3,0,0.5,0.1,0.7,0.2c0.2,0.2,0.2,0.4,0.2,0.6c0,0.3-0.1,0.6-0.3,0.7s-0.5,0.3-0.8,0.3
				c-0.3,0-0.6-0.1-0.8-0.2v-0.5c0.1,0.1,0.2,0.1,0.4,0.1c0.1,0,0.3,0.1,0.4,0.1c0.4,0,0.6-0.2,0.6-0.5c0-0.3-0.2-0.4-0.6-0.4
				c-0.1,0-0.1,0-0.2,0c-0.1,0-0.2,0-0.2,0l-0.2-0.1l0.1-1.5h1.6v0.5h-1l-0.1,0.6l0.1,0C-77.5,261.7-77.4,261.7-77.3,261.7z"/>
			<path class="st11" d="M-74.2,261.3c0,0.2-0.1,0.3-0.2,0.5c-0.1,0.1-0.3,0.2-0.5,0.3v0c0.2,0,0.4,0.1,0.5,0.2
				c0.1,0.1,0.2,0.3,0.2,0.5c0,0.3-0.1,0.5-0.3,0.6c-0.2,0.2-0.5,0.2-0.9,0.2c-0.3,0-0.6-0.1-0.8-0.2v-0.5c0.1,0.1,0.2,0.1,0.4,0.1
				c0.1,0,0.3,0.1,0.4,0.1c0.2,0,0.3,0,0.4-0.1c0.1-0.1,0.1-0.2,0.1-0.3c0-0.1-0.1-0.2-0.2-0.3c-0.1-0.1-0.3-0.1-0.5-0.1h-0.2v-0.5
				h0.2c0.2,0,0.4,0,0.5-0.1c0.1-0.1,0.2-0.2,0.2-0.3c0-0.2-0.1-0.3-0.4-0.3c-0.1,0-0.2,0-0.3,0c-0.1,0-0.2,0.1-0.3,0.2l-0.3-0.4
				c0.3-0.2,0.6-0.3,0.9-0.3c0.3,0,0.5,0.1,0.7,0.2S-74.2,261.1-74.2,261.3z"/>
		</g>
		<g class="st10">
			<path class="st11" d="M-109.7,263.6h-0.6v-1.7l0-0.3l0-0.3c-0.1,0.1-0.2,0.2-0.2,0.2l-0.3,0.3l-0.3-0.4l0.9-0.7h0.5V263.6z"/>
			<path class="st11" d="M-106.8,263h-0.3v0.6h-0.6V263h-1.2v-0.4l1.3-1.9h0.6v1.8h0.3V263z M-107.7,262.5V262c0-0.1,0-0.2,0-0.4
				c0-0.2,0-0.2,0-0.3h0c0,0.1-0.1,0.2-0.2,0.3l-0.5,0.8H-107.7z"/>
			<path class="st11" d="M-106.3,263.6l1.1-2.4h-1.4v-0.5h2.1v0.4l-1.1,2.5H-106.3z"/>
		</g>
		<g class="st10">
			<path class="st11" d="M-139.7,263.6h-2v-0.4l0.7-0.7c0.2-0.2,0.4-0.4,0.4-0.5c0.1-0.1,0.1-0.2,0.1-0.2c0-0.1,0-0.1,0-0.2
				c0-0.1,0-0.2-0.1-0.3c-0.1-0.1-0.1-0.1-0.3-0.1c-0.1,0-0.2,0-0.3,0.1c-0.1,0.1-0.2,0.1-0.3,0.2l-0.3-0.4c0.1-0.1,0.3-0.2,0.4-0.3
				s0.2-0.1,0.3-0.1c0.1,0,0.2,0,0.4,0c0.2,0,0.3,0,0.5,0.1s0.2,0.2,0.3,0.3c0.1,0.1,0.1,0.3,0.1,0.4c0,0.1,0,0.3-0.1,0.4
				c0,0.1-0.1,0.2-0.2,0.4c-0.1,0.1-0.3,0.3-0.5,0.5l-0.4,0.3v0h1.2V263.6z"/>
			<path class="st11" d="M-137.9,263.6h-0.6v-1.7l0-0.3l0-0.3c-0.1,0.1-0.2,0.2-0.2,0.2l-0.3,0.3l-0.3-0.4l0.9-0.7h0.5V263.6z"/>
			<path class="st11" d="M-136.1,260.7c0.3,0,0.5,0.1,0.7,0.2s0.3,0.3,0.3,0.5c0,0.1,0,0.3-0.1,0.4s-0.2,0.2-0.4,0.3
				c0.2,0.1,0.4,0.2,0.5,0.4c0.1,0.1,0.1,0.3,0.1,0.4c0,0.2-0.1,0.4-0.3,0.6c-0.2,0.1-0.4,0.2-0.7,0.2c-0.3,0-0.6-0.1-0.7-0.2
				c-0.2-0.1-0.3-0.3-0.3-0.6c0-0.2,0-0.3,0.1-0.4s0.2-0.2,0.4-0.3c-0.2-0.1-0.3-0.2-0.4-0.3c-0.1-0.1-0.1-0.2-0.1-0.4
				c0-0.2,0.1-0.4,0.3-0.5S-136.4,260.7-136.1,260.7z M-136.6,262.8c0,0.1,0,0.2,0.1,0.3c0.1,0.1,0.2,0.1,0.3,0.1
				c0.2,0,0.3,0,0.3-0.1s0.1-0.2,0.1-0.3c0-0.1,0-0.2-0.1-0.2s-0.2-0.2-0.4-0.2C-136.4,262.5-136.6,262.6-136.6,262.8z
				 M-136.1,261.1c-0.1,0-0.2,0-0.2,0.1c-0.1,0.1-0.1,0.1-0.1,0.2c0,0.1,0,0.1,0.1,0.2c0.1,0.1,0.1,0.1,0.3,0.2
				c0.1-0.1,0.2-0.1,0.3-0.2c0.1-0.1,0.1-0.1,0.1-0.2c0-0.1,0-0.2-0.1-0.2C-135.9,261.1-136,261.1-136.1,261.1z"/>
		</g>
		<g class="st10">
			<path class="st11" d="M-170.2,263.6h-2v-0.4l0.7-0.7c0.2-0.2,0.4-0.4,0.4-0.5c0.1-0.1,0.1-0.2,0.1-0.2c0-0.1,0-0.1,0-0.2
				c0-0.1,0-0.2-0.1-0.3c-0.1-0.1-0.1-0.1-0.3-0.1c-0.1,0-0.2,0-0.3,0.1c-0.1,0.1-0.2,0.1-0.3,0.2l-0.3-0.4c0.1-0.1,0.3-0.2,0.4-0.3
				s0.2-0.1,0.3-0.1c0.1,0,0.2,0,0.4,0c0.2,0,0.3,0,0.5,0.1s0.2,0.2,0.3,0.3c0.1,0.1,0.1,0.3,0.1,0.4c0,0.1,0,0.3-0.1,0.4
				c0,0.1-0.1,0.2-0.2,0.4c-0.1,0.1-0.3,0.3-0.5,0.5l-0.4,0.3v0h1.2V263.6z"/>
			<path class="st11" d="M-167.9,263h-0.3v0.6h-0.6V263h-1.2v-0.4l1.3-1.9h0.6v1.8h0.3V263z M-168.8,262.5V262c0-0.1,0-0.2,0-0.4
				c0-0.2,0-0.2,0-0.3h0c0,0.1-0.1,0.2-0.2,0.3l-0.5,0.8H-168.8z"/>
			<path class="st11" d="M-166.6,260.7c0.3,0,0.5,0.1,0.7,0.2s0.3,0.3,0.3,0.5c0,0.1,0,0.3-0.1,0.4s-0.2,0.2-0.4,0.3
				c0.2,0.1,0.4,0.2,0.5,0.4c0.1,0.1,0.1,0.3,0.1,0.4c0,0.2-0.1,0.4-0.3,0.6c-0.2,0.1-0.4,0.2-0.7,0.2c-0.3,0-0.6-0.1-0.7-0.2
				c-0.2-0.1-0.3-0.3-0.3-0.6c0-0.2,0-0.3,0.1-0.4s0.2-0.2,0.4-0.3c-0.2-0.1-0.3-0.2-0.4-0.3c-0.1-0.1-0.1-0.2-0.1-0.4
				c0-0.2,0.1-0.4,0.3-0.5S-166.9,260.7-166.6,260.7z M-167.1,262.8c0,0.1,0,0.2,0.1,0.3c0.1,0.1,0.2,0.1,0.3,0.1
				c0.2,0,0.3,0,0.3-0.1s0.1-0.2,0.1-0.3c0-0.1,0-0.2-0.1-0.2s-0.2-0.2-0.4-0.2C-166.9,262.4-167.1,262.6-167.1,262.8z
				 M-166.6,261.1c-0.1,0-0.2,0-0.2,0.1c-0.1,0.1-0.1,0.1-0.1,0.2c0,0.1,0,0.1,0.1,0.2c0.1,0.1,0.1,0.1,0.3,0.2
				c0.1-0.1,0.2-0.1,0.3-0.2c0.1-0.1,0.1-0.1,0.1-0.2c0-0.1,0-0.2-0.1-0.2C-166.5,261.1-166.5,261.1-166.6,261.1z"/>
		</g>
	</g>
	<g id="_x31__2_">
		<g id="XMLID_33_">
			<path id="XMLID_35_" class="st22" d="M-73.1,194.9h-14.1h-7.6h-4.4v4.4l0,0V221l0,0v4.4h4.4h7.6h14.1c2.5,0,4.4-2,4.4-4.4v-21.7
				C-68.7,196.9-70.7,194.9-73.1,194.9z"/>
			<path id="XMLID_34_" class="st23" d="M-85.4,218.2L-85.4,218.2h-13.8l0,0l0,0v2.8l0,0v4.5h4.5l0,0h21.6c2.5,0,4.5-2,4.5-4.5v-2.8
				H-85.4z"/>
		</g>
		<g id="XMLID_30_">
			<rect id="XMLID_32_" x="-129.7" y="194.9" class="st24" width="30.6" height="30.6"/>
			<rect id="XMLID_31_" x="-129.7" y="218.2" class="st25" width="30.6" height="7.3"/>
		</g>
		<g id="XMLID_27_">
			<rect id="XMLID_29_" x="-160.3" y="194.9" class="st26" width="30.6" height="30.6"/>
			<rect id="XMLID_28_" x="-160.3" y="218.2" class="st27" width="30.6" height="7.3"/>
		</g>
		<g id="XMLID_24_">
			<path id="XMLID_26_" class="st28" d="M-213.8,194.9L-213.8,194.9h-3c-2.5,0-4.4,2-4.4,4.4V221c0,2.5,2,4.4,4.4,4.4h21.7
				c2.5,0,4.4-2,4.4-4.4v-2.8v-18.9v-4.4C-190.7,194.9-213.8,194.9-213.8,194.9z"/>
			<path id="XMLID_25_" class="st29" d="M-190.7,218.2H-206l0,0h-15.3v2.8c0,2.5,2,4.5,4.5,4.5h21.6l0,0h4.5V218.2z"/>
		</g>
		<g id="XMLID_21_">
			<rect id="XMLID_23_" x="-190.7" y="194.9" class="st30" width="30.6" height="30.6"/>
			<rect id="XMLID_22_" x="-190.7" y="218.2" class="st31" width="30.6" height="7.3"/>
		</g>
	</g>
	<g id="Text_1">
		<g class="st10">
			<path class="st11" d="M-93.4,220.9c0,0.2-0.1,0.3-0.2,0.5s-0.3,0.2-0.5,0.3v0c0.2,0,0.4,0.1,0.5,0.2c0.1,0.1,0.2,0.3,0.2,0.5
				c0,0.3-0.1,0.5-0.3,0.6c-0.2,0.2-0.5,0.2-0.9,0.2c-0.3,0-0.6-0.1-0.8-0.2v-0.5c0.1,0.1,0.2,0.1,0.4,0.1c0.1,0,0.3,0.1,0.4,0.1
				c0.2,0,0.3,0,0.4-0.1c0.1-0.1,0.1-0.2,0.1-0.3c0-0.1-0.1-0.2-0.2-0.3c-0.1-0.1-0.3-0.1-0.5-0.1h-0.2v-0.5h0.2
				c0.2,0,0.4,0,0.5-0.1c0.1-0.1,0.2-0.2,0.2-0.3c0-0.2-0.1-0.3-0.4-0.3c-0.1,0-0.2,0-0.3,0s-0.2,0.1-0.3,0.2l-0.3-0.4
				c0.3-0.2,0.6-0.3,0.9-0.3c0.3,0,0.5,0.1,0.7,0.2S-93.4,220.7-93.4,220.9z"/>
			<path class="st11" d="M-91,221.7c0,0.5-0.1,0.9-0.2,1.1c-0.2,0.2-0.4,0.4-0.8,0.4c-0.3,0-0.6-0.1-0.7-0.4
				c-0.2-0.2-0.3-0.6-0.3-1.1c0-0.5,0.1-0.9,0.2-1.1c0.2-0.2,0.4-0.4,0.8-0.4c0.3,0,0.6,0.1,0.8,0.4C-91.1,220.8-91,221.2-91,221.7z
				 M-92.4,221.7c0,0.4,0,0.6,0.1,0.8c0.1,0.2,0.2,0.2,0.3,0.2c0.1,0,0.2-0.1,0.3-0.2c0.1-0.2,0.1-0.4,0.1-0.8c0-0.4,0-0.6-0.1-0.8
				c-0.1-0.2-0.2-0.2-0.3-0.2c-0.1,0-0.2,0.1-0.3,0.2C-92.4,221.1-92.4,221.3-92.4,221.7z"/>
		</g>
		<g class="st10">
			<path class="st11" d="M-124.8,223.1h-0.6v-1.7l0-0.3l0-0.3c-0.1,0.1-0.2,0.2-0.2,0.2l-0.3,0.3l-0.3-0.4l0.9-0.7h0.5V223.1z"/>
			<path class="st11" d="M-122.5,223.1h-0.6v-1.7l0-0.3l0-0.3c-0.1,0.1-0.2,0.2-0.2,0.2l-0.3,0.3l-0.3-0.4l0.9-0.7h0.5V223.1z"/>
			<path class="st11" d="M-120.7,221.3c0.3,0,0.5,0.1,0.7,0.2s0.2,0.4,0.2,0.6c0,0.3-0.1,0.6-0.3,0.7c-0.2,0.2-0.5,0.3-0.8,0.3
				c-0.3,0-0.6-0.1-0.8-0.2v-0.5c0.1,0.1,0.2,0.1,0.4,0.1c0.1,0,0.3,0.1,0.4,0.1c0.4,0,0.6-0.2,0.6-0.5c0-0.3-0.2-0.4-0.6-0.4
				c-0.1,0-0.1,0-0.2,0c-0.1,0-0.2,0-0.2,0l-0.2-0.1l0.1-1.5h1.6v0.5h-1l-0.1,0.6l0.1,0C-120.9,221.3-120.8,221.3-120.7,221.3z"/>
		</g>
		<g class="st10">
			<path class="st11" d="M-155.3,223.1h-0.6v-1.7l0-0.3l0-0.3c-0.1,0.1-0.2,0.2-0.2,0.2l-0.3,0.3l-0.3-0.4l0.9-0.7h0.5V223.1z"/>
			<path class="st11" d="M-152.6,221.5c0,0.6-0.1,1-0.4,1.3c-0.2,0.3-0.6,0.4-1.1,0.4c-0.2,0-0.3,0-0.4,0v-0.5c0.1,0,0.2,0,0.3,0
				c0.2,0,0.4,0,0.5-0.1c0.1-0.1,0.2-0.2,0.3-0.3c0.1-0.1,0.1-0.3,0.1-0.5h0c-0.1,0.1-0.2,0.2-0.3,0.3c-0.1,0-0.2,0.1-0.4,0.1
				c-0.2,0-0.4-0.1-0.6-0.2c-0.1-0.2-0.2-0.4-0.2-0.7c0-0.3,0.1-0.6,0.3-0.7c0.2-0.2,0.4-0.3,0.7-0.3c0.2,0,0.4,0,0.6,0.1
				c0.2,0.1,0.3,0.2,0.4,0.4S-152.6,221.2-152.6,221.5z M-153.6,220.7c-0.1,0-0.2,0-0.3,0.1c-0.1,0.1-0.1,0.2-0.1,0.4
				c0,0.1,0,0.2,0.1,0.3c0.1,0.1,0.2,0.1,0.3,0.1c0.1,0,0.2,0,0.3-0.1c0.1-0.1,0.1-0.2,0.1-0.3c0-0.2,0-0.3-0.1-0.4
				C-153.4,220.8-153.5,220.7-153.6,220.7z"/>
			<path class="st11" d="M-150.4,220.9c0,0.2-0.1,0.3-0.2,0.5c-0.1,0.1-0.3,0.2-0.5,0.3v0c0.2,0,0.4,0.1,0.5,0.2
				c0.1,0.1,0.2,0.3,0.2,0.5c0,0.3-0.1,0.5-0.3,0.6c-0.2,0.2-0.5,0.2-0.9,0.2c-0.3,0-0.6-0.1-0.8-0.2v-0.5c0.1,0.1,0.2,0.1,0.4,0.1
				s0.3,0.1,0.4,0.1c0.2,0,0.3,0,0.4-0.1c0.1-0.1,0.1-0.2,0.1-0.3c0-0.1-0.1-0.2-0.2-0.3s-0.3-0.1-0.5-0.1h-0.2v-0.5h0.2
				c0.2,0,0.4,0,0.5-0.1c0.1-0.1,0.2-0.2,0.2-0.3c0-0.2-0.1-0.3-0.4-0.3c-0.1,0-0.2,0-0.3,0c-0.1,0-0.2,0.1-0.3,0.2l-0.3-0.4
				c0.3-0.2,0.6-0.3,0.9-0.3c0.3,0,0.5,0.1,0.7,0.2C-150.4,220.5-150.4,220.7-150.4,220.9z"/>
		</g>
		<g class="st10">
			<path class="st11" d="M-185.4,223.1h-2v-0.4l0.7-0.7c0.2-0.2,0.4-0.4,0.4-0.5c0.1-0.1,0.1-0.2,0.1-0.2s0-0.1,0-0.2
				c0-0.1,0-0.2-0.1-0.3s-0.1-0.1-0.3-0.1c-0.1,0-0.2,0-0.3,0.1c-0.1,0.1-0.2,0.1-0.3,0.2l-0.3-0.4c0.1-0.1,0.3-0.2,0.4-0.3
				c0.1,0,0.2-0.1,0.3-0.1c0.1,0,0.2,0,0.4,0c0.2,0,0.3,0,0.5,0.1s0.2,0.2,0.3,0.3c0.1,0.1,0.1,0.3,0.1,0.4c0,0.1,0,0.3-0.1,0.4
				s-0.1,0.2-0.2,0.4c-0.1,0.1-0.3,0.3-0.5,0.5l-0.4,0.3v0h1.2V223.1z"/>
			<path class="st11" d="M-183.1,223.1h-2v-0.4l0.7-0.7c0.2-0.2,0.4-0.4,0.4-0.5c0.1-0.1,0.1-0.2,0.1-0.2s0-0.1,0-0.2
				c0-0.1,0-0.2-0.1-0.3s-0.1-0.1-0.3-0.1c-0.1,0-0.2,0-0.3,0.1c-0.1,0.1-0.2,0.1-0.3,0.2l-0.3-0.4c0.1-0.1,0.3-0.2,0.4-0.3
				c0.1,0,0.2-0.1,0.3-0.1c0.1,0,0.2,0,0.4,0c0.2,0,0.3,0,0.5,0.1s0.2,0.2,0.3,0.3c0.1,0.1,0.1,0.3,0.1,0.4c0,0.1,0,0.3-0.1,0.4
				s-0.1,0.2-0.2,0.4c-0.1,0.1-0.3,0.3-0.5,0.5l-0.4,0.3v0h1.2V223.1z"/>
			<path class="st11" d="M-180.8,223.1h-2v-0.4l0.7-0.7c0.2-0.2,0.4-0.4,0.4-0.5c0.1-0.1,0.1-0.2,0.1-0.2s0-0.1,0-0.2
				c0-0.1,0-0.2-0.1-0.3s-0.1-0.1-0.3-0.1c-0.1,0-0.2,0-0.3,0.1c-0.1,0.1-0.2,0.1-0.3,0.2l-0.3-0.4c0.1-0.1,0.3-0.2,0.4-0.3
				c0.1,0,0.2-0.1,0.3-0.1c0.1,0,0.2,0,0.4,0c0.2,0,0.3,0,0.5,0.1s0.2,0.2,0.3,0.3c0.1,0.1,0.1,0.3,0.1,0.4c0,0.1,0,0.3-0.1,0.4
				s-0.1,0.2-0.2,0.4c-0.1,0.1-0.3,0.3-0.5,0.5l-0.4,0.3v0h1.2V223.1z"/>
		</g>
		<g class="st10">
			<path class="st11" d="M-215.9,223.1h-2v-0.4l0.7-0.7c0.2-0.2,0.4-0.4,0.4-0.5c0.1-0.1,0.1-0.2,0.1-0.2s0-0.1,0-0.2
				c0-0.1,0-0.2-0.1-0.3s-0.1-0.1-0.3-0.1c-0.1,0-0.2,0-0.3,0.1c-0.1,0.1-0.2,0.1-0.3,0.2l-0.3-0.4c0.1-0.1,0.3-0.2,0.4-0.3
				c0.1,0,0.2-0.1,0.3-0.1c0.1,0,0.2,0,0.4,0c0.2,0,0.3,0,0.5,0.1s0.2,0.2,0.3,0.3c0.1,0.1,0.1,0.3,0.1,0.4c0,0.1,0,0.3-0.1,0.4
				s-0.1,0.2-0.2,0.4c-0.1,0.1-0.3,0.3-0.5,0.5l-0.4,0.3v0h1.2V223.1z"/>
			<path class="st11" d="M-213.6,223.1h-2v-0.4l0.7-0.7c0.2-0.2,0.4-0.4,0.4-0.5c0.1-0.1,0.1-0.2,0.1-0.2s0-0.1,0-0.2
				c0-0.1,0-0.2-0.1-0.3s-0.1-0.1-0.3-0.1c-0.1,0-0.2,0-0.3,0.1c-0.1,0.1-0.2,0.1-0.3,0.2l-0.3-0.4c0.1-0.1,0.3-0.2,0.4-0.3
				c0.1,0,0.2-0.1,0.3-0.1c0.1,0,0.2,0,0.4,0c0.2,0,0.3,0,0.5,0.1s0.2,0.2,0.3,0.3c0.1,0.1,0.1,0.3,0.1,0.4c0,0.1,0,0.3-0.1,0.4
				s-0.1,0.2-0.2,0.4c-0.1,0.1-0.3,0.3-0.5,0.5l-0.4,0.3v0h1.2V223.1z"/>
			<path class="st11" d="M-211.3,221.5c0,0.6-0.1,1-0.4,1.3c-0.2,0.3-0.6,0.4-1.1,0.4c-0.2,0-0.3,0-0.4,0v-0.5c0.1,0,0.2,0,0.3,0
				c0.2,0,0.4,0,0.5-0.1c0.1-0.1,0.2-0.2,0.3-0.3c0.1-0.1,0.1-0.3,0.1-0.5h0c-0.1,0.1-0.2,0.2-0.3,0.3c-0.1,0-0.2,0.1-0.4,0.1
				c-0.2,0-0.4-0.1-0.6-0.2c-0.1-0.2-0.2-0.4-0.2-0.7c0-0.3,0.1-0.6,0.3-0.7c0.2-0.2,0.4-0.3,0.7-0.3c0.2,0,0.4,0,0.6,0.1
				c0.2,0.1,0.3,0.2,0.4,0.4S-211.3,221.2-211.3,221.5z M-212.3,220.7c-0.1,0-0.2,0-0.3,0.1c-0.1,0.1-0.1,0.2-0.1,0.4
				c0,0.1,0,0.2,0.1,0.3c0.1,0.1,0.2,0.1,0.3,0.1c0.1,0,0.2,0,0.3-0.1c0.1-0.1,0.1-0.2,0.1-0.3c0-0.2,0-0.3-0.1-0.4
				C-212.1,220.8-212.2,220.7-212.3,220.7z"/>
		</g>
	</g>
</g>
<g id="Text_Preserved" class="st32">
	<text id="XMLID_20_" transform="matrix(1 0 0 1 -50.291 304.0275)" class="st33 st34 st35">248</text>
	<text id="XMLID_19_" transform="matrix(1 0 0 1 -80.8115 304.0275)" class="st33 st34 st35">137</text>
	<text id="XMLID_18_" transform="matrix(1 0 0 1 -111.332 304.0275)" class="st33 st34 st35">180</text>
	<text id="XMLID_16_" transform="matrix(1 0 0 1 -141.853 304.0275)" class="st33 st34 st35">167</text>
	<text id="XMLID_15_" transform="matrix(1 0 0 1 -172.373 304.0275)" class="st33 st34 st35">210</text>
	<text id="XMLID_14_" transform="matrix(1 0 0 1 -50.291 263.5715)" class="st33 st34 st35">67</text>
	<text id="XMLID_13_" transform="matrix(1 0 0 1 -80.8115 263.5715)" class="st33 st34 st35">153</text>
	<text id="XMLID_11_" transform="matrix(1 0 0 1 -111.332 263.5715)" class="st33 st34 st35">147</text>
	<text id="XMLID_10_" transform="matrix(1 0 0 1 -141.853 263.5715)" class="st33 st34 st35">218</text>
	<text id="XMLID_9_" transform="matrix(1 0 0 1 -172.373 263.5705)" class="st33 st34 st35">248</text>
	<text id="XMLID_7_" transform="matrix(1 0 0 1 -49.7568 223.1125)" class="st33 st34 st35">30</text>
	<text id="XMLID_6_" transform="matrix(1 0 0 1 -80.8115 223.1125)" class="st33 st34 st35">115</text>
	<text id="XMLID_5_" transform="matrix(1 0 0 1 -111.332 223.1125)" class="st33 st34 st35">193</text>
	<text id="XMLID_4_" transform="matrix(1 0 0 1 -141.853 223.1125)" class="st33 st34 st35">222</text>
	<text id="XMLID_3_" transform="matrix(1 0 0 1 -172.373 223.1125)" class="st33 st34 st35">229</text>
</g>
</svg>
