<?xml version="1.0" encoding="utf-8"?>
<!-- Generator: Adobe Illustrator 19.0.0, SVG Export Plug-In . SVG Version: 6.00 Build 0)  -->
<svg version="1.1" xmlns="http://www.w3.org/2000/svg" xmlns:xlink="http://www.w3.org/1999/xlink" x="0px" y="0px"
	 viewBox="0 0 299.4 212" style="enable-background:new 0 0 299.4 212;" xml:space="preserve">
<style type="text/css">
	.st0{fill:#AF875F;}
	.st1{fill:#A36F45;}
	.st2{fill:#D7AF87;}
	.st3{fill:#BC8E6C;}
	.st4{fill:#D65F5F;}
	.st5{fill:#BC4D4D;}
	.st6{fill:#FF8787;}
	.st7{fill:#F46D6D;}
	.st8{fill:#A8A8A8;}
	.st9{fill:#999999;}
	.st10{fill:#AFD7FF;}
	.st11{fill:#8DC0F2;}
	.st12{fill:#AFAFFF;}
	.st13{fill:#8D8DF2;}
	.st14{fill:#FFAFD7;}
	.st15{fill:#F28DC0;}
	.st16{fill:#FFD7D7;}
	.st17{fill:#F4B5B5;}
	.st18{fill:#5F87AE;}
	.st19{fill:#4A76A1;}
	.st20{fill:#87D7AF;}
	.st21{fill:#6BCA9A;}
	.st22{fill:#D7FFAF;}
	.st23{fill:#B7E87E;}
	.st24{fill:#FFD687;}
	.st25{fill:#F4C66D;}
	.st26{fill:#FFFDA9;}
	.st27{fill:#EDE188;}
	.st28{fill:#008787;}
	.st29{fill:#007A7A;}
	.st30{fill:#FFFFFF;}
	.st31{font-family:'OpenSans-Bold';}
	.st32{font-size:7.2368px;}
</style>
<g id="_x33_">
	<g id="XMLID_222_">
		<rect id="XMLID_192_" x="177.2" y="145.1" class="st0" width="55" height="55"/>
		<rect id="XMLID_87_" x="177.2" y="187.1" class="st1" width="55" height="13"/>
	</g>
	<g id="XMLID_221_">
		<rect id="XMLID_109_" x="122.2" y="145.1" class="st2" width="55" height="55"/>
		<rect id="XMLID_144_" x="122.2" y="187.1" class="st3" width="55" height="13"/>
	</g>
	<g id="XMLID_220_">
		<rect id="XMLID_115_" x="67.2" y="145.1" class="st4" width="55" height="55"/>
		<rect id="XMLID_88_" x="67.2" y="187.1" class="st5" width="55" height="13"/>
	</g>
	<g id="XMLID_219_">
		<path id="XMLID_53_" class="st6" d="M59.3,145.1C59.3,145.1,59.3,145.1,59.3,145.1l-39.1,0c-4.4,0-8,3.6-8,8v39.1c0,4.4,3.6,8,8,8
			h39.1c4.4,0,8-3.6,8-8v-5.1v-34v-8H59.3z"/>
		<path id="XMLID_42_" class="st7" d="M67.2,187.1H39.7H12.2v5c0,4.4,3.6,8,8,8h19.5v0h27.5L67.2,187.1L67.2,187.1z"/>
	</g>
	<g id="XMLID_223_">
		<path id="XMLID_123_" class="st8" d="M279.3,145.1h-39.1c0,0,0,0,0,0h-8v8v39.1v8h21.6v0h25.5c4.4,0,8-3.6,8-8V153
			C287.2,148.7,283.6,145.1,279.3,145.1z"/>
		<path id="XMLID_225_" class="st9" d="M257,187.1h-24.8h0v5c0,0,0,0,0,0v8H257v0h22.2c4.4,0,8-3.6,8-8v-5H257z"/>
	</g>
</g>
<g id="_x32_">
	<g id="XMLID_217_">
		<rect id="XMLID_160_" x="177.2" y="78.5" class="st10" width="55" height="55"/>
		<rect id="XMLID_154_" x="177.2" y="120.5" class="st11" width="55" height="13"/>
	</g>
	<g id="XMLID_216_">
		<rect id="XMLID_147_" x="122.2" y="78.5" class="st12" width="55" height="55"/>
		<rect id="XMLID_146_" x="122.2" y="120.5" class="st13" width="55" height="13"/>
	</g>
	<g id="XMLID_40_">
		<rect id="XMLID_145_" x="67.2" y="78.5" class="st14" width="55" height="55"/>
		<rect id="XMLID_134_" x="67.2" y="120.5" class="st15" width="55" height="13"/>
	</g>
	<g id="XMLID_38_">
		<path id="XMLID_54_" class="st16" d="M25.6,78.5L25.6,78.5l-5.4,0c-4.4,0-8,3.6-8,8v39.1c0,4.4,3.6,8,8,8h39.1c4.4,0,8-3.6,8-8
			v-5.1v-34v-8H25.6z"/>
		<path id="XMLID_41_" class="st17" d="M67.2,120.5H39.7v0H12.2v5c0,4.4,3.6,8,8,8h39c0,0,0,0,0,0h8V120.5z"/>
	</g>
	<g id="XMLID_218_">
		<path id="XMLID_44_" class="st18" d="M279.3,78.5h-25.5h-13.6h-8v8c0,0,0,0,0,0v39.1c0,0,0,0,0,0v8h8h13.6h25.5c4.4,0,8-3.6,8-8
			V86.5C287.2,82.1,283.6,78.5,279.3,78.5z"/>
		<path id="XMLID_43_" class="st19" d="M257,120.5L257,120.5l-24.8,0v0h0v5c0,0,0,0,0,0v8h8c0,0,0,0,0,0h39c4.4,0,8-3.6,8-8v-5H257z
			"/>
	</g>
</g>
<g id="_x31__1_">
	<g id="XMLID_36_">
		<rect id="XMLID_180_" x="177.2" y="11.9" class="st20" width="55" height="55"/>
		<rect id="XMLID_179_" x="177.2" y="53.9" class="st21" width="55" height="13"/>
	</g>
	<g id="XMLID_17_">
		<rect id="XMLID_174_" x="122.2" y="11.9" class="st22" width="55" height="55"/>
		<rect id="XMLID_167_" x="122.2" y="53.9" class="st23" width="55" height="13"/>
	</g>
	<g id="XMLID_8_">
		<rect id="XMLID_166_" x="67.2" y="11.9" class="st24" width="55" height="55"/>
		<rect id="XMLID_164_" x="67.2" y="53.9" class="st25" width="55" height="13"/>
	</g>
	<g id="XMLID_2_">
		<path id="XMLID_37_" class="st26" d="M25.6,11.9L25.6,11.9l-5.4,0c-4.4,0-8,3.6-8,8V59c0,4.4,3.6,8,8,8h39.1c4.4,0,8-3.6,8-8v-5.1
			v-34v-8H25.6z"/>
		<path id="XMLID_39_" class="st27" d="M67.2,53.9H39.7v0H12.2v5c0,4.4,3.6,8,8,8h39c0,0,0,0,0,0h8V53.9z"/>
	</g>
	<g id="XMLID_1_">
		<path id="XMLID_55_" class="st28" d="M279.3,11.9h-25.5h-13.6h-8v8c0,0,0,0,0,0V59c0,0,0,0,0,0v8h8h13.6h25.5c4.4,0,8-3.6,8-8
			V19.9C287.2,15.5,283.6,11.9,279.3,11.9z"/>
		<path id="XMLID_12_" class="st29" d="M257,53.9L257,53.9l-24.8,0v0h0v5c0,0,0,0,0,0v8h8c0,0,0,0,0,0h39c4.4,0,8-3.6,8-8v-5H257z"
			/>
	</g>
</g>
<g id="Text">
	<text id="XMLID_11_" transform="matrix(1 0 0 1 238.0069 195.8873)" class="st30 st31 st32">248</text>
	<text id="XMLID_15_" transform="matrix(1 0 0 1 183.0069 195.8873)" class="st30 st31 st32">137</text>
	<text id="XMLID_3_" transform="matrix(1 0 0 1 128.0079 195.8863)" class="st30 st31 st32">180</text>
	<text id="XMLID_14_" transform="matrix(1 0 0 1 73.0069 195.8873)" class="st30 st31 st32">167</text>
	<text id="XMLID_13_" transform="matrix(1 0 0 1 18.0079 195.8873)" class="st30 st31 st32">210</text>
	<text id="XMLID_5_" transform="matrix(1 0 0 1 238.0069 129.3096)" class="st30 st31 st32">67</text>
	<text id="XMLID_6_" transform="matrix(1 0 0 1 183.0069 129.3096)" class="st30 st31 st32">153</text>
	<text id="XMLID_4_" transform="matrix(1 0 0 1 128.0079 129.3096)" class="st30 st31 st32">147</text>
	<text id="XMLID_16_" transform="matrix(1 0 0 1 73.0069 129.3096)" class="st30 st31 st32">218</text>
	<text id="XMLID_7_" transform="matrix(1 0 0 1 18.0079 129.3087)" class="st30 st31 st32">248</text>
	<text id="XMLID_95_" transform="matrix(1 0 0 1 238.9688 62.7325)" class="st30 st31 st32">30</text>
	<text id="XMLID_108_" transform="matrix(1 0 0 1 183.0069 62.7325)" class="st30 st31 st32">115</text>
	<text id="XMLID_106_" transform="matrix(1 0 0 1 128.0079 62.7325)" class="st30 st31 st32">193</text>
	<text id="XMLID_96_" transform="matrix(1 0 0 1 73.0069 62.7325)" class="st30 st31 st32">222</text>
	<text id="XMLID_94_" transform="matrix(1 0 0 1 18.0079 62.7325)" class="st30 st31 st32">229</text>
</g>
</svg>
