<?xml version="1.0" encoding="utf-8"?>
<!-- Generator: Adobe Illustrator 19.0.0, SVG Export Plug-In . SVG Version: 6.00 Build 0)  -->
<svg version="1.1" id="Palette" xmlns="http://www.w3.org/2000/svg" xmlns:xlink="http://www.w3.org/1999/xlink" x="0px" y="0px"
	 viewBox="-99 191.3 299.4 118.7" style="enable-background:new -99 191.3 299.4 118.7;" xml:space="preserve">
<style type="text/css">
	.st0{fill:#A8A8A8;}
	.st1{fill:#999999;}
	.st2{fill:#AF875F;}
	.st3{fill:#A36F45;}
	.st4{fill:#D7AF87;}
	.st5{fill:#BC8E6C;}
	.st6{fill:#D65F5F;}
	.st7{fill:#BC4D4D;}
	.st8{fill:#FF8787;}
	.st9{fill:#F46D6D;}
	.st10{fill:#5F87AE;}
	.st11{fill:#4A76A1;}
	.st12{fill:#AFD7FF;}
	.st13{fill:#8DC0F2;}
	.st14{fill:#AFAFFF;}
	.st15{fill:#8D8DF2;}
	.st16{fill:#FFD7D7;}
	.st17{fill:#F4B5B5;}
	.st18{fill:#FFAFD7;}
	.st19{fill:#F28DC0;}
	.st20{fill:#008787;}
	.st21{fill:#007A7A;}
	.st22{fill:#87D7AF;}
	.st23{fill:#6BCA9A;}
	.st24{fill:#D7FFAF;}
	.st25{fill:#B7E87E;}
	.st26{fill:#FFFDA9;}
	.st27{fill:#EDE188;}
	.st28{fill:#FFD687;}
	.st29{fill:#F4C66D;}
	.st30{fill:#FFFFFF;}
	.st31{font-family:'Helvetica-Bold';}
	.st32{font-size:4.0159px;}
</style>
<g id="_x33__1_">
	<g id="XMLID_44_">
		<path id="XMLID_46_" class="st0" d="M168.4,275.8h-21.7l0,0h-4.4v4.4v21.7v4.4h12l0,0h14.1c2.5,0,4.4-2,4.4-4.4v-21.7
			C172.8,277.8,170.8,275.8,168.4,275.8z"/>
		<path id="XMLID_45_" class="st1" d="M156,299.1h-13.8l0,0v2.8l0,0v4.5H156l0,0h12.3c2.5,0,4.5-2,4.5-4.5v-2.8H156z"/>
	</g>
	<g id="XMLID_40_">
		<rect id="XMLID_43_" x="111.7" y="275.8" class="st2" width="30.6" height="30.6"/>
		<rect id="XMLID_41_" x="111.7" y="299.1" class="st3" width="30.6" height="7.3"/>
	</g>
	<g id="XMLID_37_">
		<rect id="XMLID_39_" x="81.2" y="275.8" class="st4" width="30.6" height="30.6"/>
		<rect id="XMLID_38_" x="81.2" y="299.1" class="st5" width="30.6" height="7.3"/>
	</g>
	<g id="XMLID_12_">
		<rect id="XMLID_36_" x="50.7" y="275.8" class="st6" width="30.6" height="30.6"/>
		<rect id="XMLID_17_" x="50.7" y="299.1" class="st7" width="30.6" height="7.3"/>
	</g>
	<g id="XMLID_1_">
		<path id="XMLID_8_" class="st8" d="M46.3,275.8L46.3,275.8H24.6c-2.5,0-4.4,2-4.4,4.4v21.7c0,2.5,2,4.4,4.4,4.4h21.7
			c2.5,0,4.4-2,4.4-4.4v-2.8v-18.9v-4.4L46.3,275.8L46.3,275.8z"/>
		<path id="XMLID_2_" class="st9" d="M50.8,299.1H35.5H20.2v2.8c0,2.5,2,4.5,4.5,4.5h10.8l0,0h15.3L50.8,299.1L50.8,299.1z"/>
	</g>
</g>
<g id="_x32_">
	<g id="XMLID_305_">
		<path id="XMLID_307_" class="st10" d="M122.5,235.4h-14.1h-7.6h-4.4v4.4l0,0v21.7l0,0v4.4h4.4h7.6h14.1c2.5,0,4.4-2,4.4-4.4v-21.7
			C126.9,237.3,124.9,235.4,122.5,235.4z"/>
		<path id="XMLID_306_" class="st11" d="M110.1,258.7L110.1,258.7H96.3l0,0l0,0v2.8l0,0v4.5h4.5l0,0h21.6c2.5,0,4.5-2,4.5-4.5v-2.8
			H110.1z"/>
	</g>
	<g id="XMLID_317_">
		<rect id="XMLID_319_" x="65.9" y="235.4" class="st12" width="30.6" height="30.6"/>
		<rect id="XMLID_318_" x="65.9" y="258.7" class="st13" width="30.6" height="7.3"/>
	</g>
	<g id="XMLID_314_">
		<rect id="XMLID_316_" x="35.3" y="235.4" class="st14" width="30.6" height="30.6"/>
		<rect id="XMLID_315_" x="35.3" y="258.7" class="st15" width="30.6" height="7.3"/>
	</g>
	<g id="XMLID_308_">
		<path id="XMLID_310_" class="st16" d="M-18.3,235.4L-18.3,235.4h-3c-2.5,0-4.4,2-4.4,4.4v21.7c0,2.5,2,4.4,4.4,4.4H0.4
			c2.5,0,4.4-2,4.4-4.4v-2.8v-18.9v-4.4L-18.3,235.4L-18.3,235.4z"/>
		<path id="XMLID_309_" class="st17" d="M4.9,258.7h-15.3l0,0h-15.3v2.8c0,2.5,2,4.5,4.5,4.5H0.4l0,0h4.5V258.7z"/>
	</g>
	<g id="XMLID_311_">
		<rect id="XMLID_313_" x="4.8" y="235.4" class="st18" width="30.6" height="30.6"/>
		<rect id="XMLID_312_" x="4.8" y="258.7" class="st19" width="30.6" height="7.3"/>
	</g>
</g>
<g id="_x31__2_">
	<g id="XMLID_33_">
		<path id="XMLID_35_" class="st20" d="M76.8,194.9H62.7h-7.6h-4.4v4.4l0,0V221l0,0v4.4h4.4h7.6h14.1c2.5,0,4.4-2,4.4-4.4v-21.7
			C81.2,196.9,79.2,194.9,76.8,194.9z"/>
		<path id="XMLID_34_" class="st21" d="M64.5,218.2L64.5,218.2H50.7l0,0l0,0v2.8l0,0v4.5h4.5l0,0h21.6c2.5,0,4.5-2,4.5-4.5v-2.8
			H64.5z"/>
	</g>
	<g id="XMLID_30_">
		<rect id="XMLID_32_" x="20.2" y="194.9" class="st22" width="30.6" height="30.6"/>
		<rect id="XMLID_31_" x="20.2" y="218.2" class="st23" width="30.6" height="7.3"/>
	</g>
	<g id="XMLID_27_">
		<rect id="XMLID_29_" x="-10.4" y="194.9" class="st24" width="30.6" height="30.6"/>
		<rect id="XMLID_28_" x="-10.4" y="218.2" class="st25" width="30.6" height="7.3"/>
	</g>
	<g id="XMLID_24_">
		<path id="XMLID_26_" class="st26" d="M-63.9,194.9L-63.9,194.9h-3c-2.5,0-4.4,2-4.4,4.4V221c0,2.5,2,4.4,4.4,4.4h21.7
			c2.5,0,4.4-2,4.4-4.4v-2.8v-18.9v-4.4L-63.9,194.9L-63.9,194.9z"/>
		<path id="XMLID_25_" class="st27" d="M-40.8,218.2h-15.3l0,0h-15.3v2.8c0,2.5,2,4.5,4.5,4.5h21.6l0,0h4.5V218.2z"/>
	</g>
	<g id="XMLID_21_">
		<rect id="XMLID_23_" x="-40.8" y="194.9" class="st28" width="30.6" height="30.6"/>
		<rect id="XMLID_22_" x="-40.8" y="218.2" class="st29" width="30.6" height="7.3"/>
	</g>
</g>
<g id="Text_Live_1_">
	<text id="XMLID_60_" transform="matrix(1 0 0 1 145.4804 304.0575)" class="st30 st31 st32">248</text>
	<text id="XMLID_59_" transform="matrix(1 0 0 1 114.9599 304.0575)" class="st30 st31 st32">137</text>
	<text id="XMLID_58_" transform="matrix(1 0 0 1 84.4394 304.0575)" class="st30 st31 st32">180</text>
	<text id="XMLID_57_" transform="matrix(1 0 0 1 53.9184 304.0575)" class="st30 st31 st32">167</text>
	<text id="XMLID_56_" transform="matrix(1 0 0 1 23.3984 304.0575)" class="st30 st31 st32">210</text>
	<text id="XMLID_55_" transform="matrix(1 0 0 1 99.6194 263.6014)" class="st30 st31 st32">67</text>
	<text id="XMLID_54_" transform="matrix(1 0 0 1 69.0989 263.6014)" class="st30 st31 st32">153</text>
	<text id="XMLID_53_" transform="matrix(1 0 0 1 38.5784 263.6014)" class="st30 st31 st32">147</text>
	<text id="XMLID_52_" transform="matrix(1 0 0 1 8.0574 263.6014)" class="st30 st31 st32">218</text>
	<text id="XMLID_51_" transform="matrix(1 0 0 1 -22.4626 263.6004)" class="st30 st31 st32">224</text>
	<text id="XMLID_50_" transform="matrix(1 0 0 1 54.4533 223.1424)" class="st30 st31 st32">30</text>
	<text id="XMLID_49_" transform="matrix(1 0 0 1 23.3987 223.1424)" class="st30 st31 st32">115</text>
	<text id="XMLID_48_" transform="matrix(1 0 0 1 -7.1219 223.1424)" class="st30 st31 st32">193</text>
	<text id="XMLID_47_" transform="matrix(1 0 0 1 -37.6429 223.1424)" class="st30 st31 st32">222</text>
	<text id="XMLID_42_" transform="matrix(1 0 0 1 -68.1629 223.1424)" class="st30 st31 st32">229</text>
</g>
</svg>
