<?xml version="1.0" encoding="utf-8"?>
<!-- Generator: Adobe Illustrator 19.0.0, SVG Export Plug-In . SVG Version: 6.00 Build 0)  -->
<svg version="1.1" id="Icon" xmlns="http://www.w3.org/2000/svg" xmlns:xlink="http://www.w3.org/1999/xlink" x="0px" y="0px"
	 viewBox="0 0 500 500" style="enable-background:new 0 0 500 500;" xml:space="preserve">
<style type="text/css">
	.st0{fill:#FF9DCC;}
	.st1{fill:#FF7596;}
	.st2{fill:#6595D5;}
	.st3{fill:#98CBF6;}
	.st4{fill:#A3A0F8;}
	.st5{fill:#F7C3C4;}
</style>
<path id="XMLID_22_" class="st0" d="M398.9,177.2c0,8.7-1.1,17.2-3.2,25.3h-35c-14,0-25.3-11.3-25.3-25.3c0-7,2.8-13.3,7.4-17.9
	c4.6-4.6,10.9-7.4,17.9-7.4h35C397.8,159.9,398.9,168.4,398.9,177.2z"/>
<path id="XMLID_21_" class="st1" d="M297.8,76H127.2c-6.9,0-13.2,2.9-17.8,7.4c-4.6,4.6-7.4,10.9-7.4,17.9
	c0,13.9,11.3,25.2,25.2,25.3h82.9h87.7h87.7C367.9,96.3,335.2,76,297.8,76z"/>
<path id="XMLID_18_" class="st0" d="M364.6,253.2c8.2-7.2,15.3-15.8,20.8-25.3h-84.3c-0.9,0-1.8,0-2.6,0.1c-0.2,0-0.5,0-0.7,0v0.1
	c-5.7,0.7-10.7,3.3-14.6,7.2c-4.6,4.6-7.4,10.9-7.4,17.9c0,12.8,9.6,23.5,22,25.1v0.1c0.2,0,0.4,0,0.6,0c0,0,0,0,0.1,0
	c0.9,0.1,1.7,0.1,2.6,0.1h84.3C379.8,268.9,372.8,260.4,364.6,253.2z"/>
<path id="XMLID_17_" class="st0" d="M398.9,177.2c0,8.7-1.1,17.2-3.2,25.3h-35c-14,0-25.3-11.3-25.3-25.3c0-7,2.8-13.3,7.4-17.9
	c4.6-4.6,10.9-7.4,17.9-7.4h35C397.8,159.9,398.9,168.4,398.9,177.2z"/>
<path id="XMLID_16_" class="st2" d="M210.1,379.7h-84.5c-6.5,0-12.4,2.8-16.7,7.4c-4.3,4.6-6.9,10.9-6.9,17.9
	c0,14,10.5,25.3,23.5,25.3h178.2c34.9,0,65.3-20.4,81.6-50.6H210.1z"/>
<path id="XMLID_15_" class="st3" d="M395.8,304.1c0-0.1-0.2-0.2-0.3-0.2h-97.8h-55.2c-7,0-13.3,2.8-17.9,7.4
	c-4.2,4.2-7,9.9-7.4,16.3c-0.9,14.8,12.1,26.9,26.9,26.9l53.6,0h97.8c0.1,0,0.3-0.1,0.3-0.2c2.1-8,3.1-16.4,3.1-25.1
	C398.9,320.5,397.9,312.1,395.8,304.1z"/>
<path id="XMLID_14_" class="st4" d="M233.2,278.5H127.3c-13.9,0-25.2-11.4-25.2-25.2v0c0-13.9,11.4-25.2,25.2-25.2h105.9
	c13.9,0,25.2,11.4,25.2,25.2v0C258.5,267.2,247.1,278.5,233.2,278.5z"/>
<path id="XMLID_13_" class="st5" d="M292.9,202.4H127.3c-13.9,0-25.2-11.4-25.2-25.2v0c0-13.9,11.4-25.2,25.2-25.2h165.6
	c13.9,0,25.2,11.4,25.2,25.2v0C318.1,191,306.8,202.4,292.9,202.4z"/>
<path id="XMLID_11_" class="st4" d="M174.7,354.4h-47.4c-13.9,0-25.2-11.4-25.2-25.2v0c0-13.9,11.4-25.2,25.2-25.2h47.4
	c13.9,0,25.2,11.4,25.2,25.2v0C199.9,343,188.6,354.4,174.7,354.4z"/>
</svg>
